<mxfile host="app.diagrams.net" modified="2022-03-23T05:55:08.227Z" agent="5.0 (Macintosh; Intel Mac OS X 10_15_7) AppleWebKit/605.1.15 (KHTML, like Gecko) Version/15.3 Safari/605.1.15" etag="R1HNBWUbkYHJX7CronC_" version="17.1.5" type="github">
  <diagram id="yCge23kLVX3NRGWWsJ9K" name="Page-1">
    <mxGraphModel dx="1526" dy="864" grid="0" gridSize="10" guides="1" tooltips="1" connect="1" arrows="1" fold="1" page="1" pageScale="1" pageWidth="827" pageHeight="1169" background="#ffffff" math="0" shadow="0">
      <root>
        <mxCell id="0" />
        <mxCell id="1" parent="0" />
        <mxCell id="ZivklVcL2sIQt0F_CLgx-1" value="" style="verticalLabelPosition=bottom;verticalAlign=top;html=1;shadow=0;dashed=0;strokeWidth=1;shape=mxgraph.android.phone2;strokeColor=#c0c0c0;" parent="1" vertex="1">
          <mxGeometry x="66" y="62" width="228" height="459" as="geometry" />
        </mxCell>
        <mxCell id="ZivklVcL2sIQt0F_CLgx-2" value="" style="verticalLabelPosition=bottom;verticalAlign=top;html=1;shadow=0;dashed=0;strokeWidth=2;shape=mxgraph.android.navigation_bar_1;fillColor=#1A1A1A;strokeColor=#999999;sketch=0;" parent="1" vertex="1">
          <mxGeometry x="76" y="458" width="211" height="30" as="geometry" />
        </mxCell>
        <mxCell id="ZivklVcL2sIQt0F_CLgx-4" value="Choose a country&amp;nbsp;" style="strokeWidth=1;html=1;shadow=0;dashed=0;shape=mxgraph.android.spinner2;align=center;fillColor=#999999;strokeColor=#999999;verticalAlign=bottom" parent="1" vertex="1">
          <mxGeometry x="91.5" y="176" width="180" height="10" as="geometry" />
        </mxCell>
        <mxCell id="ZivklVcL2sIQt0F_CLgx-5" value="+" style="strokeWidth=1;html=1;shadow=0;dashed=0;shape=mxgraph.android.textfield;align=left;strokeColor=#999999;pointerEvents=1" parent="1" vertex="1">
          <mxGeometry x="94.5" y="204" width="33.5" height="30" as="geometry" />
        </mxCell>
        <mxCell id="ZivklVcL2sIQt0F_CLgx-6" value="&lt;font color=&quot;#cccccc&quot;&gt;phone number&lt;/font&gt;" style="strokeWidth=1;html=1;shadow=0;dashed=0;shape=mxgraph.android.textfield;align=center;strokeColor=#999999;pointerEvents=1" parent="1" vertex="1">
          <mxGeometry x="132.5" y="204" width="139" height="30" as="geometry" />
        </mxCell>
        <mxCell id="ZivklVcL2sIQt0F_CLgx-7" value="Please confirm your country code and yourÂ &#xa;phone number." style="text;strokeColor=none;fillColor=none;spacingLeft=4;spacingRight=4;overflow=hidden;rotatable=0;points=[[0,0.5],[1,0.5]];portConstraint=eastwest;fontSize=9;fontColor=#CCCCCC;" parent="1" vertex="1">
          <mxGeometry x="90.25" y="243" width="184.75" height="35" as="geometry" />
        </mxCell>
        <mxCell id="ZivklVcL2sIQt0F_CLgx-8" value="Continue" style="rounded=1;html=1;shadow=0;dashed=0;whiteSpace=wrap;fontSize=10;fillColor=#999999;align=center;strokeColor=#666666;fontColor=#ffffff;strokeWidth=2;" parent="1" vertex="1">
          <mxGeometry x="127.25" y="295" width="105.5" height="22" as="geometry" />
        </mxCell>
        <mxCell id="ZivklVcL2sIQt0F_CLgx-9" value="" style="verticalLabelPosition=bottom;verticalAlign=top;html=1;shadow=0;dashed=0;strokeWidth=1;shape=mxgraph.android.phone2;strokeColor=#c0c0c0;" parent="1" vertex="1">
          <mxGeometry x="544" y="54" width="233" height="459" as="geometry" />
        </mxCell>
        <mxCell id="ZivklVcL2sIQt0F_CLgx-10" value="" style="verticalLabelPosition=bottom;verticalAlign=top;html=1;shadow=0;dashed=0;strokeWidth=2;shape=mxgraph.android.navigation_bar_1;fillColor=#1A1A1A;strokeColor=#999999;sketch=0;" parent="1" vertex="1">
          <mxGeometry x="554" y="450" width="216" height="30" as="geometry" />
        </mxCell>
        <mxCell id="ZivklVcL2sIQt0F_CLgx-15" value="Continue" style="rounded=1;html=1;shadow=0;dashed=0;whiteSpace=wrap;fontSize=10;fillColor=#999999;align=center;strokeColor=#666666;fontColor=#ffffff;strokeWidth=2;" parent="1" vertex="1">
          <mxGeometry x="605.25" y="287" width="110.5" height="22" as="geometry" />
        </mxCell>
        <mxCell id="ZivklVcL2sIQt0F_CLgx-16" value="" style="endArrow=classic;html=1;rounded=0;fontSize=9;fontColor=#CCCCCC;exitX=1.004;exitY=0.505;exitDx=0;exitDy=0;exitPerimeter=0;entryX=0;entryY=0.521;entryDx=0;entryDy=0;entryPerimeter=0;" parent="1" source="ZivklVcL2sIQt0F_CLgx-1" target="ZivklVcL2sIQt0F_CLgx-9" edge="1">
          <mxGeometry width="50" height="50" relative="1" as="geometry">
            <mxPoint x="475" y="362" as="sourcePoint" />
            <mxPoint x="525" y="312" as="targetPoint" />
            <Array as="points" />
          </mxGeometry>
        </mxCell>
        <mxCell id="ZivklVcL2sIQt0F_CLgx-19" value="" style="rounded=1;whiteSpace=wrap;html=1;fontSize=9;fontColor=#CCCCCC;" parent="1" vertex="1">
          <mxGeometry x="588" y="191" width="23" height="32" as="geometry" />
        </mxCell>
        <mxCell id="ZivklVcL2sIQt0F_CLgx-20" value="" style="rounded=1;whiteSpace=wrap;html=1;fontSize=9;fontColor=#CCCCCC;" parent="1" vertex="1">
          <mxGeometry x="620" y="191" width="23" height="32" as="geometry" />
        </mxCell>
        <mxCell id="ZivklVcL2sIQt0F_CLgx-21" value="" style="rounded=1;whiteSpace=wrap;html=1;fontSize=9;fontColor=#CCCCCC;" parent="1" vertex="1">
          <mxGeometry x="652" y="191" width="23" height="32" as="geometry" />
        </mxCell>
        <mxCell id="ZivklVcL2sIQt0F_CLgx-22" value="" style="rounded=1;whiteSpace=wrap;html=1;fontSize=9;fontColor=#CCCCCC;" parent="1" vertex="1">
          <mxGeometry x="683" y="192" width="20" height="31" as="geometry" />
        </mxCell>
        <mxCell id="ZivklVcL2sIQt0F_CLgx-23" value="" style="rounded=1;whiteSpace=wrap;html=1;fontSize=9;fontColor=#CCCCCC;" parent="1" vertex="1">
          <mxGeometry x="712" y="191" width="22" height="32" as="geometry" />
        </mxCell>
        <mxCell id="ZivklVcL2sIQt0F_CLgx-24" value="Enter. SMS verification code" style="text;html=1;strokeColor=none;fillColor=none;align=center;verticalAlign=middle;whiteSpace=wrap;rounded=0;fontSize=9;fontColor=#CCCCCC;" parent="1" vertex="1">
          <mxGeometry x="584" y="157" width="159" height="30" as="geometry" />
        </mxCell>
        <mxCell id="ZivklVcL2sIQt0F_CLgx-28" value="&lt;font color=&quot;#030303&quot;&gt;Resend sms code&lt;/font&gt;" style="text;html=1;strokeColor=none;fillColor=#E6E6E6;align=center;verticalAlign=middle;whiteSpace=wrap;rounded=0;fontSize=9;fontColor=#CCCCCC;" parent="1" vertex="1">
          <mxGeometry x="663" y="229" width="77" height="22" as="geometry" />
        </mxCell>
        <mxCell id="ZivklVcL2sIQt0F_CLgx-29" value="" style="verticalLabelPosition=bottom;verticalAlign=top;html=1;shadow=0;dashed=0;strokeWidth=1;shape=mxgraph.android.phone2;strokeColor=#c0c0c0;" parent="1" vertex="1">
          <mxGeometry x="1073" y="54" width="233" height="459" as="geometry" />
        </mxCell>
        <mxCell id="ZivklVcL2sIQt0F_CLgx-30" value="" style="verticalLabelPosition=bottom;verticalAlign=top;html=1;shadow=0;dashed=0;strokeWidth=2;shape=mxgraph.android.navigation_bar_1;fillColor=#1A1A1A;strokeColor=#999999;sketch=0;" parent="1" vertex="1">
          <mxGeometry x="1083" y="450" width="216" height="30" as="geometry" />
        </mxCell>
        <mxCell id="ZivklVcL2sIQt0F_CLgx-31" value="Register" style="rounded=1;html=1;shadow=0;dashed=0;whiteSpace=wrap;fontSize=10;fillColor=#999999;align=center;strokeColor=#666666;fontColor=#ffffff;strokeWidth=2;" parent="1" vertex="1">
          <mxGeometry x="1134.25" y="367" width="110.5" height="22" as="geometry" />
        </mxCell>
        <mxCell id="ZivklVcL2sIQt0F_CLgx-40" value="" style="ellipse;whiteSpace=wrap;html=1;aspect=fixed;fontSize=8;fontColor=#030303;fillColor=#E6E6E6;" parent="1" vertex="1">
          <mxGeometry x="1166" y="115" width="55" height="55" as="geometry" />
        </mxCell>
        <mxCell id="ZivklVcL2sIQt0F_CLgx-41" value="" style="verticalLabelPosition=bottom;verticalAlign=top;html=1;shape=mxgraph.flowchart.summing_function;fontSize=8;fontColor=#030303;fillColor=#E6E6E6;" parent="1" vertex="1">
          <mxGeometry x="1205" y="157" width="11" height="13" as="geometry" />
        </mxCell>
        <mxCell id="ZivklVcL2sIQt0F_CLgx-42" value="Upload your photo" style="text;html=1;strokeColor=none;fillColor=none;align=center;verticalAlign=middle;whiteSpace=wrap;rounded=0;fontSize=8;fontColor=#030303;" parent="1" vertex="1">
          <mxGeometry x="1146" y="170" width="90" height="30" as="geometry" />
        </mxCell>
        <mxCell id="ZivklVcL2sIQt0F_CLgx-43" value="Enter first name" style="strokeWidth=1;html=1;shadow=0;dashed=0;shape=mxgraph.android.textfield;align=left;strokeColor=#999999;pointerEvents=1;fontSize=8;fontColor=#030303;fillColor=#E6E6E6;" parent="1" vertex="1">
          <mxGeometry x="1102.5" y="193" width="174" height="30" as="geometry" />
        </mxCell>
        <mxCell id="ZivklVcL2sIQt0F_CLgx-44" value="Enter last name" style="strokeWidth=1;html=1;shadow=0;dashed=0;shape=mxgraph.android.textfield;align=left;strokeColor=#999999;pointerEvents=1;fontSize=8;fontColor=#030303;fillColor=#E6E6E6;" parent="1" vertex="1">
          <mxGeometry x="1102.5" y="225" width="174" height="30" as="geometry" />
        </mxCell>
        <mxCell id="ZivklVcL2sIQt0F_CLgx-45" value="&lt;font color=&quot;#cccccc&quot;&gt;01.01.1990&lt;/font&gt;" style="strokeWidth=1;html=1;shadow=0;dashed=0;shape=mxgraph.android.textfield;align=center;strokeColor=#999999;pointerEvents=1;fontSize=8;fontColor=#030303;fillColor=#E6E6E6;" parent="1" vertex="1">
          <mxGeometry x="1102.5" y="290" width="70.5" height="23" as="geometry" />
        </mxCell>
        <mxCell id="ZivklVcL2sIQt0F_CLgx-46" value="Enter birthday" style="text;html=1;strokeColor=none;fillColor=none;align=center;verticalAlign=middle;whiteSpace=wrap;rounded=0;fontSize=8;fontColor=#030303;" parent="1" vertex="1">
          <mxGeometry x="1176" y="286.5" width="60" height="30" as="geometry" />
        </mxCell>
        <mxCell id="ZivklVcL2sIQt0F_CLgx-55" value="male" style="html=1;shadow=0;dashed=0;shape=mxgraph.bootstrap.radioButton2;labelPosition=right;verticalLabelPosition=middle;align=left;verticalAlign=middle;gradientColor=#DEDEDE;fillColor=#EDEDED;checked=0;spacing=5;checkedFill=#0085FC;checkedStroke=#ffffff;fontSize=10;fontColor=#030303;" parent="1" vertex="1">
          <mxGeometry x="1130" y="332" width="10" height="10" as="geometry" />
        </mxCell>
        <mxCell id="ZivklVcL2sIQt0F_CLgx-56" value="female" style="html=1;shadow=0;dashed=0;shape=mxgraph.bootstrap.radioButton2;labelPosition=right;verticalLabelPosition=middle;align=left;verticalAlign=middle;gradientColor=#DEDEDE;fillColor=#EDEDED;checked=0;spacing=5;checkedFill=#0085FC;checkedStroke=#ffffff;fontSize=10;fontColor=#030303;" parent="1" vertex="1">
          <mxGeometry x="1205" y="332" width="10" height="10" as="geometry" />
        </mxCell>
        <mxCell id="ZivklVcL2sIQt0F_CLgx-62" value="" style="endArrow=classic;html=1;rounded=0;fontSize=9;fontColor=#CCCCCC;exitX=1.004;exitY=0.505;exitDx=0;exitDy=0;exitPerimeter=0;entryX=0.002;entryY=0.517;entryDx=0;entryDy=0;entryPerimeter=0;" parent="1" target="ZivklVcL2sIQt0F_CLgx-29" edge="1">
          <mxGeometry width="50" height="50" relative="1" as="geometry">
            <mxPoint x="783.0020000000001" y="291.62500000000006" as="sourcePoint" />
            <mxPoint x="1032.09" y="290.969" as="targetPoint" />
            <Array as="points" />
          </mxGeometry>
        </mxCell>
        <mxCell id="ZivklVcL2sIQt0F_CLgx-63" value="&lt;font color=&quot;#030303&quot;&gt;Not registered&lt;/font&gt;" style="text;html=1;strokeColor=none;fillColor=none;align=center;verticalAlign=middle;whiteSpace=wrap;rounded=0;fontSize=10;fontColor=#CCCCCC;" parent="1" vertex="1">
          <mxGeometry x="872" y="260.5" width="100" height="27.5" as="geometry" />
        </mxCell>
        <mxCell id="ZivklVcL2sIQt0F_CLgx-66" value="" style="verticalLabelPosition=bottom;verticalAlign=top;html=1;shadow=0;dashed=0;strokeWidth=1;shape=mxgraph.android.phone2;strokeColor=#c0c0c0;" parent="1" vertex="1">
          <mxGeometry x="1718" y="58" width="233" height="459" as="geometry" />
        </mxCell>
        <mxCell id="ZivklVcL2sIQt0F_CLgx-67" value="" style="verticalLabelPosition=bottom;verticalAlign=top;html=1;shadow=0;dashed=0;strokeWidth=2;shape=mxgraph.android.navigation_bar_1;fillColor=#1A1A1A;strokeColor=#999999;sketch=0;" parent="1" vertex="1">
          <mxGeometry x="1728" y="454" width="216" height="30" as="geometry" />
        </mxCell>
        <mxCell id="ZivklVcL2sIQt0F_CLgx-68" value="Connect" style="rounded=1;html=1;shadow=0;dashed=0;whiteSpace=wrap;fontSize=10;fillColor=#999999;align=center;strokeColor=#666666;fontColor=#ffffff;strokeWidth=2;" parent="1" vertex="1">
          <mxGeometry x="1779.25" y="318" width="110.5" height="22" as="geometry" />
        </mxCell>
        <mxCell id="ZivklVcL2sIQt0F_CLgx-71" value="Please enter &amp;nbsp;each other username and connect" style="text;html=1;strokeColor=none;fillColor=none;align=center;verticalAlign=middle;whiteSpace=wrap;rounded=0;fontSize=8;fontColor=#030303;" parent="1" vertex="1">
          <mxGeometry x="1780" y="156" width="117" height="30" as="geometry" />
        </mxCell>
        <mxCell id="ZivklVcL2sIQt0F_CLgx-72" value="username" style="strokeWidth=1;html=1;shadow=0;dashed=0;shape=mxgraph.android.textfield;align=center;strokeColor=#999999;pointerEvents=1;fontSize=8;fontColor=#030303;fillColor=#E6E6E6;" parent="1" vertex="1">
          <mxGeometry x="1780" y="199" width="112" height="30" as="geometry" />
        </mxCell>
        <mxCell id="ZivklVcL2sIQt0F_CLgx-78" value="&lt;font color=&quot;#cccccc&quot;&gt;Partner username&lt;/font&gt;" style="strokeWidth=1;html=1;shadow=0;dashed=0;shape=mxgraph.android.textfield;align=center;strokeColor=#999999;pointerEvents=1;fontSize=8;fontColor=#030303;fillColor=#E6E6E6;" parent="1" vertex="1">
          <mxGeometry x="1780" y="255" width="112" height="30" as="geometry" />
        </mxCell>
        <mxCell id="ZivklVcL2sIQt0F_CLgx-79" value="" style="endArrow=classic;html=1;rounded=0;fontSize=10;fontColor=#030303;exitX=0.999;exitY=0.497;exitDx=0;exitDy=0;exitPerimeter=0;entryX=-0.01;entryY=0.501;entryDx=0;entryDy=0;entryPerimeter=0;" parent="1" source="ZivklVcL2sIQt0F_CLgx-29" target="ZivklVcL2sIQt0F_CLgx-66" edge="1">
          <mxGeometry width="50" height="50" relative="1" as="geometry">
            <mxPoint x="1342" y="314" as="sourcePoint" />
            <mxPoint x="1392" y="264" as="targetPoint" />
          </mxGeometry>
        </mxCell>
        <mxCell id="ZivklVcL2sIQt0F_CLgx-81" value="" style="shape=image;html=1;verticalAlign=top;verticalLabelPosition=bottom;labelBackgroundColor=#ffffff;imageAspect=0;aspect=fixed;image=https://cdn4.iconfinder.com/data/icons/ionicons/512/icon-ios7-refresh-empty-128.png;fontSize=8;fontColor=#7EA6E0;fillColor=#E6E6E6;gradientDirection=south;" parent="1" vertex="1">
          <mxGeometry x="1905" y="111" width="27" height="27" as="geometry" />
        </mxCell>
        <mxCell id="ZivklVcL2sIQt0F_CLgx-84" value="" style="shape=image;html=1;verticalAlign=top;verticalLabelPosition=bottom;labelBackgroundColor=#ffffff;imageAspect=0;aspect=fixed;image=https://cdn4.iconfinder.com/data/icons/evil-icons-user-interface/64/share-128.png;fontSize=8;fontColor=#7EA6E0;fillColor=#E6E6E6;gradientDirection=south;" parent="1" vertex="1">
          <mxGeometry x="1875" y="205.5" width="17" height="17" as="geometry" />
        </mxCell>
        <mxCell id="ZivklVcL2sIQt0F_CLgx-86" value="" style="verticalLabelPosition=bottom;verticalAlign=top;html=1;shadow=0;dashed=0;strokeWidth=1;shape=mxgraph.android.phone2;strokeColor=#c0c0c0;" parent="1" vertex="1">
          <mxGeometry x="66" y="642" width="228" height="459" as="geometry" />
        </mxCell>
        <mxCell id="ZivklVcL2sIQt0F_CLgx-87" value="" style="verticalLabelPosition=bottom;verticalAlign=top;html=1;shadow=0;dashed=0;strokeWidth=2;shape=mxgraph.android.navigation_bar_1;fillColor=#1A1A1A;strokeColor=#999999;sketch=0;" parent="1" vertex="1">
          <mxGeometry x="76" y="1030" width="211" height="30" as="geometry" />
        </mxCell>
        <mxCell id="ZivklVcL2sIQt0F_CLgx-90" value="" style="shape=image;verticalLabelPosition=bottom;labelBackgroundColor=default;verticalAlign=top;imageAspect=0;image=data:image/jpeg,/9j/4AAQSkZJRgABAQAAAQABAAD/2wBDAAYEBQYFBAYGBQYHBwYIChAKCgkJChQODwwQFxQYGBcUFhYaHSUfGhsjHBYWICwgIyYnKSopGR8tMC0oMCUoKSj/2wBDAQcHBwoIChMKChMoGhYaKCgoKCgoKCgoKCgoKCgoKCgoKCgoKCgoKCgoKCgoKCgoKCgoKCgoKCgoKCgoKCgoKCj/wAARCAUAAk8DASIAAhEBAxEB/8QAHAABAAMBAQEBAQAAAAAAAAAAAAUGBwQCAwEI/8QAWRAAAQMDAwEEBAsEBAoIBQIHAAECAwQFEQYSITEHE0FRFBUiYRcyVWNxgZShouHiFlOR0QgjQlIkMzU3YnJzsbPBJTY4dXaCkrQnNEN0svDxGERlhKPCxP/EABkBAQADAQEAAAAAAAAAAAAAAAABAgMEBf/EAC4RAQEAAgEEAgECBgEFAQAAAAABAhEDEiExURNBFCJhBHGBwdHwoSMyseHxQv/aAAwDAQACEQMRAD8ApgAPSeUAAAD9RFcqI1FVV4RE8T6VNPNSzuhqoZIZm43MkarXJlM8ovuCXyBIS2S6xUKVstsrmUatR3fup3pHhei7sYwR43s1oB96Sjqaxz20lPNO6NiyPSJiuVrU6uXHRE8z3b7fW3KV0Vuo6mrlam5WQROkVE88Ig2acoPvWUlRRVDoK2nmp52/GjlYrHJ9KLyfAAASU9lroLWyvkhVIHLhfNqdEVU8lXKfSnvTLZpGgAIAAAAAAAAAAAAAAAAAAAAAAAAAAAAAAAAAAAAAAAAAAAAAAAAAAAAAAAmqfTN1ns7LlHTOWCWRIoW//UnXx2N6uRPFUFukyW+EKCwQ6Pvjq2mpqi3z0bqhysjkqmLExXYVUTcvCKuMJ71Ii4UVTbq2WkroXwVMTtr43phUUiWXwWWeXMAXHTvZvqa+wxz01B6PSyfFmqnJGipjOUT4yp70TAtk8pmNvhTgaZWdi+p6eBXwyW6qcn/04pnI5f8A1NRPvKFerPcLJWOpbrRzUs6f2ZG4R3vReip70yhEzxy8VOWGWPmOAAFlAHQlJKtG6qVMRIqNRV8foOcJASVDZ6mrjV6Yjbwqb0VNyeaHFUQSU8ismY5rvDKYynmNmnyAAQAAAAAAAAnNL6grrFUP9WLDFLUOY1Zlia6RiIq8NVUXbnPOPJCd7TKltH2r3GpkgZUMhqIpFik+K/DGLtX3KUqncjJ43u6Ncir/ABLJra5W+/a9rK6KeRltqZo8y92u5rNrUcu3zTC8FLP1bXl/TpaNG6guVbf7vqa9TyrYYo5fSoHyKsUm9qoyBrV4VcqmE8ETkoGbY6xo1rKv1ytT1y3ue529PPdu+rBd9R1GlrpT0dBRajnobRRtxDSpbnvy9fjSPduTc5VzzjhOE99QhdQW+lZXUFfK6709aiwsdAmxYm8tk5ymdyJ7KkY+1svTStGRRacZV2Ha1btU2yequLuqxf1arHCnvRF3O96ongZ3bdQV1PYHWO1sfDJU1SSvmgc5JZuNrY+PDPOPNSx6X7QqqO61lRfJKVyS0szUkZQQo90rm+zuVrMqir1zx5nx0RdrLRpcbpcq/wBD1BK9zaaVtF3kcCKnMjWNwm7lUTwTyKyWbti1supK8dplQ5KfT9rr5O/vVBSqytmV25UVztzY1d4q1Ov0lGJrUFLaoWtmt17muc8j1WVJKR0Sp47sq5cqqkKaYzUZZXdW/RNjgrGvrqpzXsZuY2NHfFdhfaXywnKfRnlEciaA5kT6RzVijhjjY9qRoxEbLwnC7lRERPF3OUXC5xG9+PWm51NrqHSUz3I2RixSsyqJIxeHNX3Kn8OqF7qtW26msbH0LWTVEjUbHFJuR0GMorVVFTDcLnCcLleERXIlM8btphlJFY1rY4rHdEigmR8cjd2xU2qxfFMKqrjyVfv6rXT7VdTNWVMlRUyOkmkXLnL4nxNJ2ndle97AAJQAAAAAAAAAAAAAAAAAAAAAAAAAAAAAAAAAAAAAAAAAAAAAAAAAAAaJWX+4af0RZGUVTIlfcIXudUq7L4YGuVrYo1/spwqrgzsudrqLbqLTdLZrpWx264UDn+hVUyL3T2PXKxvVPi88opXOeNr4Xzp21d/uOmL3RNdVVdZbaqjppqimrJFlZMkkbXPxu96rhU6EN2lUstDrS40s1RLUNiVqRPlcrnJGrUVjVVfJqon1Fio6GC1UUUOqtR26stNM9JYqGkkSple5OdrHY/q2rxnCpkpGortNfL5WXKpTElTIr9v91OiN+pERPqK4+Vs/Gq+2kLrTWXUVHX11DHXU8L8uhf8A/knhlOqZ4/3n9bWS60d6tkFfbZmzU0yZa5PDzRU8FTyP45t7UdWRovdLzwkqqjVX34LboPW9Vo69SbFSa1TP/r6eNVVv+szPRU+/p5KleXj6u88rcPJ0dr4f1OY/276ptLbc6wpBDWXNVRyuX/8Alffn+8qeHkvPgi9faD2rUNBZomaZqYqqvq49zZG8tp2r4uT+/wD6K9PHyX+e55ZJ5pJp5HySyOVz3vXKuVeqqvipnxcV31Vrzcs10x4NI7KezuXU1Q243Vj4rLG7hOi1Dk/sovg3zX6k55Ti7LtH0moq5au81cEFqp34fG6ZGPmdwu1OconKZX6k80/pCnuFopoI4aesoIoY2o1jGSsa1qJ0REReEL8vJrtGfDxb/Vk/mzXMMdOldDAxscUdQ5rGNTCNRHKiIhRy7a7qYJZ7ikU0b1WqcqI1yLn2lKSa4eGWfle6D/5Cm/2bf9xX9V//ADkP+z/5qbZpin0A/TdpdXVtrbVrSRLM19ftcj9ibkVN/C5zwZn2wsskeo6Vum5qaWk9Ear1p5u9bv3vzzlecY4M8M95a00zw1jvaiAA2YAAAAkPV3zv4fzHq7538P5k6qOqI8Eh6u+d/D+Y9XfO/h/Map1RHgkPV3zv4fzHq7538P5jVOqI8Eh6u+d/D+Y9XfO/h/Map1RHgkPV3zv4fzHq7538P5jVOqI8Eh6u+d/D+Y9XfO/h/Map1RHgkPV3zv4fzHq7538P5jVOqI8Eh6u+d/D+Y9XfO/h/Map1RHgkPV3zv4fzHq7538P5jVOqI8Eh6u+d/D+Y9XfO/h/Map1RHgkPV3zv4fzHq7538P5jVOqI8Eh6u+d/D+Y9XfO/h/Map1RHgkPV3zv4fzHq7538P5jVOqI8Eh6u+d/D+Y9XfO/h/Map1RHgkPV3zv4fzHq7538P5jVOqI8Eh6u+d/D+Y9XfO/h/Map1RHgkPV3zv4fzHq7538P5jVOqI8Eh6u+d/D+Y9XfO/h/Map1RHgkPV3zv4fzHq7538P5jVOqI8Eh6u+d/D+Y9XfO/h/Map1RHgkPV3zv4fzHq7538P5jVOqI8Eh6u+d/D+Y9XfO/h/Map1RHgkPV3zv4fzHq7538P5jVOqI8Eh6u+d/D+Y9XfO/h/Map1RHgkPV3zv4fzHq7538P5jVOqI8Eh6u+d/D+Y9XfO/h/Map1RHgkPV3zv4fzHq7538P5jVOqI8Eh6u+d/D+Y9XfO/h/Map1RHgkPV3zv4fzHq7538P5jVOqI8Eh6u+d/D+Y9XfO/h/Map1RHgkPV3zv4fzHq7538P5jVOqI8Eh6u+d/D+Y9XfO/h/Map1RHgkPV3zv4fzHq7538P5jVOqI8Eh6u+d/D+Y9XfO/h/Map1RHgkPV3zv4fzHq7538P5jVOqI8Eh6u+d/D+Y9XfO/h/Map1RHgkPV3zv4fzHq7538P5jVOqO8AGjMAAAAAAAAAAAAAAAAAAAAAAAAAAAAAAAAAAAAAAAAAAAAAAAAAAAAAAAAAAAAAAAAAAAAAAAAAAAAAAAAAAAAAAAAAAAAAAAAAAAAAAaLpTTdDZbUmpdXNRIETNLRO+NM7wVW/wC5PrXgodyqI6qvqJ4KdlNFI9XNhYq7WIvgmSmOfVdRbLC4yWuYAF1QAAAAAANRsVos+ltExajv1Cy4VlXhKenlRFYiOyreFynKJlVVF46e+mefSvhh1MuPTWOdna1Vx1wmTWdO3HT2uZqi1V9io7bVPjV8NRTojXce/Ccp1xyi4U+nZBRSW+r1bRSqjpIEZEqt6Kqd4mUKXl1Lud4vOHdmr2rIAWb9hNSpbvTfVM3c7d+Nzd+P9TO76sZICipKiuqo6ajhknqJFw2ONuVU0mUvisrjZ5j4As1y0JqW3Ub6qqtciQsTLlZIyRUTzw1VXBXqanmq52QUsUk0z1w2ONquc5fciCZS95S42drHyBaK3QOpqOkfUz2qTumJl2yRj3In+q1VX7iu0VLPW1UdNSQvmnkXDI40yqr9AmUvilxs7WPiCz3DQWpaCjfU1Nrk7piZcscjJFRPPDVVSAoKKpuNXHS0MEk9RIuGsjTKr+XvEyl7ylxs7WOcFju+itQ2iidV19teynb8Z7Htk2+9dqrhPf0K4TMpfBcbj5ASth09db9I9lpopKjZ8ZyKjWt9yuVUTPuyfS/6ZvFgSN12oZIGScNeio9qr5bmqqZ9xHVN62dN1vXZDAE1YdL3m/se+1UL542Lh0iuRjc+WXKiKvuQm2TvSS3tEKCTvtiudhqGw3akkp3uTLVXCtd9Dkyi/wATqsWkr5fYHT2u3ySwNXHeOc1jVX3K5Uz9RHVNb2dN3rSCBIXqzXGyVXo91pJKeVUym7lHJ5oqcL9Snu52G5Wygoq2upu6paxqPgfva7eioi5wiqqcKnUnqh01GAlX6fubLDHenUuLZI7a2bvG8ruVvxc56ovgd8WiNRyrR93bJHJVs7yJzXsVFbhFyq5w3qnXBHXjPtPRlfpWwTdz0perZX0lHXUL4p6p6Rw+01Wvcq4REci4zlfFS8Xns2li0bRTUVBIt8RyLVMWduGtw7PVcf3eilbyYzXfymcWV328MsBOW7Sd8uVtjr6GgfPSyP7tr2PblXZx0znr44x49Dpl0NqKL0tHW9M0jO8mRJ41VjcZzjdleEXp5FuvH2joy9K0CRsdluF9rHUtqp1qJ2sWRWo5rcNRUTOXKieKHHV08lJVTU87UbNE9Y3tRyOw5FwqZThfqJ3N6V1dbfIAEgAAAAAAAAAAAAAAAAAAAAAAAAAAAAAAH6iKqoidVA+lNTzVUrYqaKSaV3RkbVcq/Uh9q6211vciV9HU0yr0SaJzM/xQ0u/3VvZ1b6WzWKKFLrLE2Wrq3MRy5XwTP0L14RPpOLTOv6u6V7LVqtsFfbqxyROV8TWrGqrhF4RExn6/Ex68rOqTs2+PGXpt7s2BNazsyWDU1dbmO3RxORY1XrtciOTPvwuCFNZdzcZWauqAAlAAABa+zX1L+08Hr/8Axf8A9Hd/i+88N/u+7PUqgK5Tqmk43pu229pP7NeuGftL653bE7nusd1t8dv/AD8fuKj/APDn/wDrf3H10pqWhvVrTTWrnItOqYpaxy+1C7wRXeHuX6l4KJcqeOlr6iCCoZUxRvVrZmIqI9EXqmTHDj1+m2ujk5Jf1STukNUeo/TIv2b9L9G7v2/Scbt+V6e7GCGAN5NTTnt3dgAJQAAAax2nosnZ1pWWLmBGRoqp0ysXH+5TJzQdK6utcum105qyCSSgauYZ40y6PnKdOeFzhUz1xjBlyS7mU+mvFZq437Ua30NVcalKegp5aidUVUZG1XLhOvBqnYlFNQyaljmjdFUQsjRzHphWuTvOFQ5LdqDR+joKio036ZcbnKxWMfUNVEankvDeMonRMr5kf2c6torTLf5r1PJ39ejXI5rFdud7aqq46cuQpncs8b2X45jhlN3u7uyXUN2uGs3R11wqaiKaF7nskerm5TCoqJ0T6iZ0fBDba/X11p4mek0cs7YUxw1E3uxjyVUT+BQOza80dh1PHW3F7mU7YnsVWtVy5VOOEJaw61p7Tq+91EkTqizXOaRZGbedquVWuwvucqKnvIzwu7qfS3HyTU6r919ezLU94n1tSwVdfUVMNYr2yxyvVyfFVUVEXhOU8PAtmk7TR2nXWsKiCFHLRMY+FqJ8XvGq9yJ5dMfQQNsu2hNMVc11s766trtqpDBI1USLPgiqiY8sqqrggNJa4ntOqqy6V7Fnhr1X0ljOqZXKK3Pl0RPLgjLG5buM12TjlMdTK77uvQOrL1Nrii9Kr6mojq5e7lie9VYqKi9G9EwuF4x0JqG4WrSfbBdX1aJDSSx7Uc1uUie9rHquE6JnPTzPjbrloGwXJ15tslwqKtqOWGlc1UbGqpjhVRPBVTlV6+K4ICx6wp01ZXXLUFBDWU1cuJGLG16xf3VbnyTj3k3HqtsnbSJl0yS3vtdqO3agpKyruuk9RUt9jlRznQTyq5eVymER2Mp0/s/QfPsopkbaNS3WRaegr3yyRd5I1GspsN3dF6NRXcpn+yhGWW66I0tXTXS01dyq6lY3MjpnNVGpnwyqJ5eKr9akPo/XDLfdbt64p++t12e59QxifEc5VyqJ4phyoqfR5c16crLqLTLGZTdXnSToLVV1S3fW9uulJURq18MtS1faVeqZeuOMpj3mK3SGKnuVXDTSJLBHM9kb0XKOajlRFz45Qvb3dndubUVVMlfc5XtckdJJlrGKvvwnTPXKqnXqZ2a8U72seXLtI03SUN8m0M5j7lR2Ow73Zq1RUmkXdzjCpnn2fDpgna2OCTsju8Tbz67jgf7FQ5itVio5i7eVVVxnOfJcFdsOpNPXHRUWntTuqaVKZ+6KeBqrnlVReEXnlU5TB0z6l0rTaHulhtC1Ue9F7t8rFVZ34au5VTpnGPDoZZS9Xj7bY3GY+fplxrfaFWVOndFaZt9nnkpYpoldI6Fytc5Ua1eqeavVVMkNIoNS6fv+l6O0audU089DhsNVC3cqtRMJ4L4YRcpzhFNuSd5db0w4r2s3q1CXTWk920jDZrlT+k1ET0eytkly9MKvVMc8KqZyW7tcuNXYYLNZ7NPNRUjIFcvcPViuwqIiZTnjCr78ld1dqCxpp+Cw6YpnOpmKjpauZiI9/OcJxnleV6eSJglHal01quyUNPq59XSXCjTalTA3PeJxnoi9cJlFTr0Uzs8Za7NJl5x6u7ruVRJqDsX9OuarLW0UyIyd/wAZ39Yjc5/1XY96oc3aX/1B0Z/9sz/hMI3Weq7bJp6m05pmOVtshVHSSy8OkXOei+9crnHPREQkYdQ6W1BpG2WzUktXR1Fva1jHwNV25Gt25RcKnKImcp1ImNmstfa1ymW8d99PrW/5hqD/AGy/8Z52do92r7borS8dvq5qZJoG94sTlarsRswmU5xypFao1Rp6o0Cyx2RtREsUqbI5WrlWo5VVyr0yuc/WR2vdR2686e09SUMj3TUUWyZHMVqIuxqcL48ooxxts3PumWcksl+on7/W1Nf2M2i4VU8j62KpRzZ9y78te9qLnrnCdT7aruNbH2Q2GoZWVLaiSViPlbK5HORWyZRVzleiFZq9R2+TsrorEyR/rCKZXubsXbjvHu69OioSlDqHTd10DSWS/wBRV0s1G7c1YWZ3qm7bhcKmMOxyOmzvr7OuXtv6SliudVaOxOWsoJO6qWSq1r8Iu3dKiLjPuVSJ7KdTVc+sXwXWpkqEuEPdKsi5y5qKrc/VuT6zgj1Jbm9lMtiWST1i6Tcjdi7cd6juvTohTLdUy0dwpqmmz30MjZGY/vIuULTj3MtxS8mrjq+Gu6dt37EWvWFzkRGvhlWnpkcnVOrF9+Ve3+BjSqqqqquVU2LtxvK+rrba2osck/8AhM0a9WoiYai/Xu/9Jjpbh3Z1X7Rz6l6Z9AANmAAAAAAAAAAAAAAAAAAAAAAAAAAAAAAH61drkVOqLk/ABqetbNNrWko9Saeb6S90KRVVM1yb2OT3ePXH8FQitEaCutTeaaputJJRUFPIkkjp02K7C5RqIvPPmU+1XavtM/fW2rmppF6rG7CL9KdF+s7btqq+XbalwuU8rWqio1FRjcp0Xa3CZMejOTpl7NuvC3qs7uztKqpK3Wtymlp5afLmtYyVqtcrWtRqOwvnjP1lYNUpa+3dotm9Du8kVHqGkjV0VU7DWytRMrn3eKp4dU8UMtkbskczLXbVVMtXKL9Bbjvbp9K8k79U+3kAGjMAAAAAAAAAAAAAAAAAAAAAAAAAAAAAAAAAAAAAAAAAAAAAAAAAAAsGjtQxacrZamS2U1fIqJ3azYzE5F+M1cLhSvgiyWaqcbcbuJPUd6q9QXaa4V7kWV+ERrfisanRqe78yMAEmpqIttu6AAkAAAAAAAAAAAAAAAAAAAAAAAAAAAAAAAAAAAAAAAAAap8EFR8qp9m/WPggqPlVPs36zH58Pbb8fk9MrBqnwQVHyqn2b9Y+CCo+VU+zfrHz4ez8fk9MrBqnwQVHyqn2b9Y+CCo+VU+zfrHz4ez8fk9MrBqnwQVHyqn2b9Y+CCo+VU+zfrHz4ez8fk9MrBqnwQVHyqn2b9Y+CCo+VU+zfrHz4ez8fk9MrBqnwQVHyqn2b9Y+CCo+VU+zfrHz4ez8fk9MrBqnwQVHyqn2b9Y+CCo+VU+zfrHz4ez8fk9MrBqnwQVHyqn2b9Y+CCo+VU+zfrHz4ez8fk9MrBqnwQVHyqn2b9Y+CCo+VU+zfrHz4ez8fk9MrBqnwQVHyqn2b9Y+CCo+VU+zfrHz4ez8fk9MrBqnwQVHyqn2b9Y+CCo+VU+zfrHz4ez8fk9MrBqnwQVHyqn2b9Y+CCo+VU+zfrHz4ez8fk9MrBqnwQVHyqn2b9Y+CCo+VU+zfrHz4ez8fk9MrBqnwQVHyqn2b9Y+CCo+VU+zfrHz4ez8fk9MrBqnwQVHyqn2b9Y+CCo+VU+zfrHz4ez8fk9MrBqnwQVHyqn2b9Y+CCo+VU+zfrHz4ez8fk9MrBqnwQVHyqn2b9Y+CCo+VU+zfrHz4ez8fk9MrBqnwQVHyqn2b9Y+CCo+VU+zfrHz4ez8fk9MrBqnwQVHyqn2b9Y+CCo+VU+zfrHz4ez8fk9MrBqnwQVHyqn2b9Y+CCo+VU+zfrHz4ez8fk9MrBqnwQVHyqn2b9Y+CCo+VU+zfrHz4ez8fk9MrBqnwQVHyqn2b9Y+CCo+VU+zfrHz4ez8fk9MrBqnwQVHyqn2b9Y+CCo+VU+zfrHz4ez8fk9MrBqnwQVHyqn2b9Y+CCo+VU+zfrHz4ez8fk9MrBqnwQVHyqn2b9Y+CCo+VU+zfrHz4ez8fk9MrBqnwQVHyqn2b9Y+CCo+VU+zfrHz4ez8fk9MrBqnwQVHyqn2b9Y+CCo+VU+zfrHz4ez8fk9MrBqnwQVHyqn2b9Y+CCo+VU+zfrHz4ez8fk9MrBqnwQVHyqn2b9Y+CCo+VU+zfrHz4ez8fk9MrBqnwQVHyqn2b9Y+CCo+VU+zfrHz4ez8fk9MrBqnwQVHyqn2b9Y+CCo+VU+zfrHz4ez8fk9MrBqnwQVHyqn2b9Y+CCo+VU+zfrHz4ez8fk9MrBqnwQVHyqn2b9Y+CCo+VU+zfrHz4ez8fk9MrBqnwQVHyqn2b9Y+CCo+VU+zfrHz4ez8fk9MrBqnwQVHyqn2b9Y+CCo+VU+zfrHz4ez8fk9MrBqnwQVHyqn2b9Y+CCo+VU+zfrHz4ez8fk9MrBqnwQVHyqn2b9Y+CCo+VU+zfrHz4ez8fk9NpAB5z1AAAAAAAAAAAAAAAAAAAAAAAAAAAAAAAAAAAAAAAAAAAAAAAAAAAAAAAAAAAAAAAAAAAAAAAAAAAAAAAAAAAAAAAAAAAADiqbpSU0yxTS4enVERVx/ADtB+NVHNRzVRUVMoqeJ+gAAAAAFe1jqWPTdNTvWBKiWZ6tbHv2cInK5wvuT6yTsdxju1ppq6Fu1szN23Odq9FT6lRUKHcIW6r7RX0cvt0NDG5r0zjlOFx796on0IdfZhVPpJ7nYapUSWmlV7M9VTO131ZRF/8yhC/gAJAAAAAAAAB0MLodT3Z3aTHqt1XU/slW3R+noqfduiwjUaydvOMOma72uuFxksX9Ii8VVv0BU0VLR3B7a5Y4pKqmwjIm96xFa5dyKivRVamEXOVzgDToKiGoarqeWOVqLtVWORyIvlwfQz+3XbTugtBsr2WGssVLJN3bLasKLUzTL7LURqOXc9yNTlXdE5PyDtPpW3W02y62C/WqvudQkFPHV07Ua5FT425HYwnCKnxkynAGgI9rnOajmq5vVEXlPpP0xW26lbYe2XtFhhtlyuldU+gOipqGHe7a2n9pznKqNaibmpyvOeMl905r2z3rTdyvLvSbfDbHyRV8NZHskpnxplyORM548s+XXgC2gzun7U6NVoKivsN9t9nr5GxU1yqYGpC5XfEVyI5XNa7jCqnid+p+0S3af1XFp2S33Stuk9GlZBHRwJJ3qbnN2JymF9lyqq4aiJ1AuoKno3W9Jqa4XG2PoK+13eg2rPRVzEa9Gu+K9FRVRUXz/mhBaS1hYLH2UW29RzXia3SSPhp2VrknrJ5Vme1GJhcOcqouEz0TwwoGkgpVk1/DXX2Cz3Sy3ey3GqjfLSR10TUbUo1MuRjmuVNyJyrVxggND68vF57S9RWqttF3ioI0pe4imhib6BmJznLKrXZ9tURW8u+oDVAUS5do8ENwuFPaLDe73FbZFirKmhhascUjfjMRXOTe5PFEzg6rl2i2Ki0PSasR89RZ6l7GNfEz2m7nbV3Iqp8VUXP0L1AuIKHS9pVIt8oKC5WO+WqG4y9xR1ldTpHFNIvxW/Gy1XeCKiKvuL4AAAAAAAAAAAAAAAAAAAAAAAAAAAAAAAAAAAAAAAAAAAAHHeKt1Baa2rY1HPp4Hyo1eiq1qrj7j5afr3XSyUVdIxrHzxJIrWrwmSem66leudXT9pEFBsNrk1PZ6i71lxro6uqkkWDup3MbTI1ytREai4Xpzn/fydlnrLtqXQlK+kqWU9fKvdTTrwqNRyo5zcJ8ZUT3dfA1y4tffjtWOPP1fXmbn7rkCiXakZp+52P1RW1b6ueqbDLBJUul76NfjvVqquMY6phEyXspnh06s+1+PkuVss7wABRqFHvH+VKn/XUvBSLx/lSp/11JiKt9t/ydS/7Jn+5DoOe2/5Opf9kz/ch0EJAAAI/UFxbabNV1rsZijVWovRXdGp9aqhIEbf7PT3yhSkq5JmQ70eqRORFVU88ovAGaaNt2pkpJLjZn07GVarufNhXOwq+aL45Pyo9b6c1fQ3a+LFuqX4kfEqYc3CNdwnkiopq1uo4rfQQUlOipFCxGNz1XHivvOLUVho7/SxwV3eI2N+9ro1RHIuMYyqLwEaSoPlRwNpaSGnY57mxMRiOeuVVETHK+Z9QkAAAAACn9rWoJNN6DuVXSKvrCZqUlG1vxnTSLtbj3plXf8AlLgc1bb6Ov7j06kp6n0eVs8PfRtf3cjej25ThyZXCpyBiNX2edoDuzb9j2Lo/wBWRRIjO69JbMr2u37kcq7dyvTOcY5XjB16y1H+1X9Hulur1T0mSWkZUNTjbMyoY16Y8PaRV+hUNsI31BZ/QZqL1Tb/AEOaXv5IPRmd2+TKLvc3GFdlEXK85RAKF20uShuWh7zWLttFvvDHVb1+LFuTDJHeSIvj7zh7TL/aLjrLs7o7fcqSrqUvDZlZBKkm1m1UyuM45VMZ6+HRTQdZQXSpsb4rLS22tmV7e9pbii91PFn22ZTOFVOiqip5oZ/Y9F3Cv1TZauo0taNK2a0zOq1pqSVkstXPtVrFVzGtRGtznnK+HjwEjoP/ADy9p3023/26kFSXqo05D2vXahp21FRSVySsjcmW57pvLkTqiZyvuRTX6e30dPW1VZT0lPFV1W30idkbWvm2phu9yJl2E4TPQ/ILdRU76p8FHTRPq3b6hzImtWZcYy/Ce0uOOQP577TbjBJ2bR1Fb2huu9bWupnMoYEp2wvXvGOX2GM3tRqIq5VycoiLyuFvdT/2mKT/AMML/wC4cXODRWloI6qOHTlnZHVIiTsSij2yIio5EcmMKmURceaIpK+raH1k24ehU3p7Yu4bU903vUjznYj8Z255xnAFAtn/AGhL177DD/xSk6USwv8A6PelYtUOrIKSW4vZDW0qo11HMtTNsmVy8NanKZXPXobuy30bLg+vZSU7a58aRPqUjRJHMRco1XYyqZ8Oh8YrNbIbT6rht1FHbMKnojIGpDhVyqbMY5VVXp1UDM7XfbnaNe6dslRqG36so7k2bZK2GNtTR7GbkeqxrhWqnGVRFX6ue3SFXTwdt3aHTz1EUc9Qy2rDG96I6TbA7O1F64ymceZd7JpixWGSSSy2e30EkiYe+mp2Rucnkqomce4+09itVReILtPbaOS5wJtiq3QtWViYVMI7GfFf4qBlFu1PJfZtR1d71r+zFPbq+amZbqdKeORrI8e29ZGuc5XeSJjKcZKlQ8/0YNMovymz/wB483yr0tYKy7NulXZbbNcWqipUyUzHSZTou5UzlPDyPulgs6W9tAlpt6ULZO+Sm9GZ3aPzndtxjOec9cgUHt06aD/8U0X/APuagctfbqK4dx6fR01V6PK2eHvomv7uRvxXtynDkyuFTk6gAAAAAAAAAAAAAAAAAAAAAAAAAAAAAAAAAAAAAAAAAAAqettMW+5UVfcJYJZK6Olf3ex7uVa1Vam1OvJzaE0pb6SgtdzWCaO4pFudve5MOVqovsrx0VS6g1+XLo6Nsfgw+T5Nd1BvdFbbE+ufHfqijgncsstuge1XyPXwZ/abu46fxRDrsEv7HaFtzrnDLjenfbE/xPeOVcuRfBMoi+8tK26iWsWrWkp1q1x/XLGm/jp7WMnRIxskbmSNa9jkwrXJlFQm8u5Je6k4Ljlcse3pnt8gtNtuFqrNLvgbc56tkasp5d3exuzu3NyvHTnwNEI+hstsoJlmorfS08q9XxxNav8AFEJAryZ9Wl+LjuG7fv0AAzbBSLx/lSp/11LuUi8f5Uqf9dSYirfbf8nUv+yZ/uQ6Dntv+TqX/ZM/3IdBCQAAAAAAAAAAAAAAAAAAAAAAAAAAAAAAAAAAAAAAAAAAAAAAAAAAAAAAAAAAAAAAAAAAAAAAAAAAAAAAAAAAAAAAAAAAAAAKRekVt0qcpj2sl3PnJBDI9HyRRvenRzmoqoIizb525FS30yKmFSJqKn1IdAASAAAAAAAAAAAAAAAAAAAAAAAAAAAAAAAAAAAAAAAAAAAAAAAAAAAAAAAAAAAAAAAAAAAAAAAAAAAAAAAAAAAAAAAAAAAAAAAAAAAAAAAAAAAAAAAAAAAAAAAAAZAAAAAAAAAAAAAAAAAAAAAAAAAAAAAAAAAAAAAAAAAAAAAAAAAAAAAAAAAAAAAAAAAAAAAAAAAAAAAAAAAAAAAAAAAAAAACo9q+oX6Z0Jc62mX/AA+RiU1I1OrppF2swniqZz9QGe0WrLw7tMj1C+sqf2OrLo/T0VMrldHvRqI2dqIuMOla5N3XHBZu2xVR2g8KqZ1VQp97yk1WgO0hOzZNIxw6PS2wxorFhkqUqFe1/ebkcvs71dz0ROfBCQ1JqJNVaK7LbuuEnm1LQNnan9mVqva9MeHtIv1YA/aLU8enu2/tBZ6vudzqqhlB3NJb6dZZFRsCbnLyjWom5OVVOqYyaVpHWlq1Pa6usp+/onUL3R1tNXx9zLSuRMqkiKuE45znH1oqJRtJXOho+3/tCpqyqggqKiKhWFsj0ar0bA3djPXGU4PnZLpH+3HarqG2xsr7XTUULHIxcx1M0UDlcxF5RcY2r16gTa9rlnSJtc+035tgdL3SXl1HilxnCPznfszxu29Sb1hry1aUr7VSXCKtnlubZXU3okPfb1YjV2oiLlXO3IiYRU81ROTHNY3CpuPYjPeLprSH/pCnYsVoo4IIoGqqtXuETasiq3nPtJ0XwLpV4f2gdkK8L/0fWqi//wBtGBbNJa8otQ3qqs8ltu1pu1PClT6LcqdI3PiVUTe3CqiplUTr1X3LiN0bqmxUWkr/AHeS43b1bQ3KoZUTXaTvXsejm5bHtz7GXIjW9eT5XHjt+syp42GdF9/9c0oWnb/Lprsi1ncYKWnqZW6jnjalSzfExXSRt3vTxRM5+nAGj2ztMoam6W6iuVlvtlS4u2Uc9ypUjjmevRmUcu1y+CKiF8MD18ksFx0BHX62dfqybUFHMlO2OnZHtyuZWtjbuROURMuVPa8TfAAAAAAAAAAAAAAAAAAAAAAAAAAAAAAAAAAAAAAAAAAAAAAAAABDW28urNR3e2LC1raFIlSRHZV+9u7p4YOy722G60TqWpdK2NVR2Ynqx3HvQoFn0lRTavv9LK+ubT06Qd25J3IrtzMrl3jz/A248cLLcr/u45+bPkxyxmM7W/2q33u1190udOz06SltLGK6RtPIrJZJM8IqonDce8jNOyT0esLhaYauorLdHTtl3TSLI6CRVxs3L5plcL5HdcZ7Sk1Ppq5MkWKWna5jpXYbIjFTDd2c7uEUidNRU9r1vW2yyuza1pEnljR29sU27GEd1TKc4yWx30WX1/tZ5a+SWe+/fv8Ay/k4KmekqtTXv1rqOst8MczIoIoqxYk4Ym5ceWfH6SyXBGWnRNwfS19RUI2mkfFUyzb3qqtXaqO+nGD50E2na6e7b6OlgnimcyqSpjY1zsJ8Zf8ARXwX6SG01U0dFoS5TVVNLV2VlVKkESM3q6DeiIuFxwi5X6i9767eNdmeP6be87y9zT9Lba1KSP8Aau5S3BWMc+FtwyiuwiqiJ4+PBoBQNcx2f9nKSS0tpUrlmiWgWmRqOV25OmOcYz9xf06IZcveTJt/D/ptw/l4AAYuoAAAAAAAAAAAAAAAAAAAAADlr7fRXBIEr6SnqUglbPF30aP7uRvxXtz0cmVwqcnUABFs07ZWRRRMtNA2KKp9NjYlOxEZP+9RMcP/ANLqSgAhLppLT12fUyXKx22qlqVa6aSWmY50itTa1VdjKqiKqIvgh32m10FnoWUdpo6eipGZVsMEaMair1XCeJ2ACtxaD0lFPPNHpqzpJMitkX0OPlFTCp08fHzJdLTbkmoZUoKVJaFix0j+6bmnaqI1WsXHsoqIiYTwQ7QBzOt9G+4sr3UsDq5kaxMqFjTvGsVcq1HdUTPOD4Q2S1Q0NVRQ22iZR1TnPngbA1GSud8ZXNxhyr456kgAK7QaH0tQJij07aYf6xsyK2lZlHtXLXIuOFRenl4FiAAAAAAAAAAAAAAAAAAAAAAAAAAAAAAAAAAAAAAAAAAAAAAAAAAAADluFuo7lCkVfSw1EaLlElYjsL5pnoLdbqK2xLFQUsNMxVyqRMRuV818zqBPVdaV6cd9Wu6Nr7FarhOk9db6WeZMe2+NFVfpXxO6OCKOBsDImNha3YkaNRGo3pjHkfQC5W9iY4y7kRlHp+0UdV6TS22khnTlHsiRFT6PL6iTAFtvkxxmPaQABCwAAAAAAAAAAAAAAAAAAAAAAAAAAAAAAAAAAAAAAAAAAAAAAAAAAAAAAAAAAAAAAAAAAAAAAAAAAAAAAAAAAAAAAAAAAAAAAAAAAAAAAAAAAAAAAAAAAAAAAAAAAAAAAAAAAAAAAAAAAAAAAAAAAAAAAAAAAAAAAAAAAAAAAAAAAAAAAAAAAAAAAAAAAAAAAAAAAAAAAAAAAAAAAAAAAAAAAAAAAAAAAxGj1feHdqTb2+sn/Y2ruT9OxQOyrElaxNszURce1Kjm7vLKfRZu2mR8btCd29zN2qaFrtq4yiq/hfcBpAKnqbXlssV5itCUtyud1fF360ltplnfHHnG53RET68/cfbSWtrRqqe5w2p1Qj7csaVPfxLErHPRV2qi8oqbVRUVEwqAWYGfu7WNPtzUJBdnWdJe5W8NonLRo7O3PeeWeN2MZ8Tv1X2iWXTF5p7XXMrp66pp/SIIqSnWZZk3bUa1E5Vy4XjyTqBcQUy3XahuOvaBUqL5TV89k9LS2z/1cDYllRNz4+qTIqonXhODnuPahZqSevSnorzcKS3vWOrrqKidLTwOb8ZFflM7fHGcAXsHNbK6mulupq6gmbPSVMbZYpG9HNcmUU6QAAAAAAAAAAAAAAAAAAAAAAAAAAAAAAAAAAAAAAAAAAAAAAAAABEW+8+magu1r7jZ6AkS95vzv3t3dMcY+lSZjbvX0rcpjZL9pcFdvlDdLpeYKVlRPR2dsKvlmppEbJJJnCMz1RMc5x7jgsD6q26yq7KlbUVtClIlSjql298T92Nu7yVOcL7i849ze2d5dZas7b0uIKLqN+oKS4WuepuUUdLNc4qdKWmjVMsV6qiuevKrhMKnTks+oo7lNbHQ2aRkVVI5re9d/wDTbn2nIniuPAXj1rv5Jy76u17JMFFuVLUaauFokortcKuSqq2QS01VN3qSMXO5yJ4Y80L0Rlh06svlbj5Oq2WasAAUaAAAAAAAAAAAAAAAAAAAAAAVPtT1E7TGhbpcIF/w1WdxSN8XTPXazCeOFXP0IpbDiulqoLqlKlypYqlKadtTCkiZRkrfiuT3plQMQqtC6+Z2Wt0jBb9NtpaeNHxyQ1k3f961/ebmqrcbldnxROccId2qNRN1VozssvHCS1GpKBJmp/Zlar2vT/1IptxCR6TsMcEMEdqpWwwViXCJiNwjKhOe8RPBQKTomSGk7be0GnrMRV1Yyinpu84WaFsStcrM9UReFx4/QQlJI28XPtu9SPbVOmpYoYVg9vfIlI9itbjqu5FT6Sx9pFpqLle4HVuhaPU9rZDiGWOoZFUwSZXcjt6pli+zjC8YXPVDo7JdL11k9d3S60FJa6m7TROZbaVyOZSQxM2Rs3JwrsZyqcAZ/pyx3O99j9MsnaNQ0umXUDYKiGS0Q4p02ojo3P3ou5F4zwqrhfEnrbRxUXbPo2kjqWVsdNpbu46lqJiVGu2o9OVxlOeq9epeZ+zzSNRdluU2nrc+tc/vXPWJMOf13K34qrnxVCcfaLe+8xXZ9JEtyihWBlRj2mxquVanuyBSX/8AaFi/8Lv/APdtKpZbpX3vRd6v0eo7fpiyxyVEXq2koYcRbVVP61z0Ve8fwuEROqY6mxra6Jbwl19Gj9YpB6KlRj2u63btmfLPJCT6A0pPenXeawW99xc7vHTOiRcu/vKnTd78ZAh+wRd3ZDptc5/qXp//AJHl/OKy2qhsltht9ppY6Sihz3cMaYa3Kq5cfWqr9Z2gAAAAAAAAAAAAAAAAAAAAAAAAAAAAAAAAAAAAAAAAAAAAAAAAcd1oGXKkdTyTVELVVF3wSKx3HvQoFl03DPrLUNItfc2tp0gxIyqcj37mZ9p3jjw8jSwaYcuWEsn2x5ODHkymV+kBfLsljoqWhokdV3OVqRU0L3Zc9UTG96+SdVU+umbU21wSvnqEqblVO7ypn8Xu8k8mp0RD73Sw2u6zNmuNFDUSNbta56ZVE64+8+dBpqzW+rjqaK3wQ1Eedr2pymUwv3KpPVj06+1ejPr6rrX0jNfdNPf970//ADJm+3enstJHU1jZVgdK2Jz2IipHu43OyvDff7zprKOnrO59KibL3MjZo939l6dHJ70PpUQxVED4aiNksT02uY9Mo5PJUK9U1JfpfoylysvlQL/ardp+42i5WL2bhUVbY9nerJ30b/jYRVX3cp0yaGRNu03Z7bU+kUVvgin8HomVT6M9PqJYnkz6tfsjh47hu+N/UAAZtgAAAAAAAAAAAAAAAAAAAAAAAAAAAAAAAAAAAAAAAAAAAAAAAAAAAAAAAAAAAAAAAAAAAAAAAAAAAAAAAAAAAAAAAAAAAAAAAAAAAAAAAAAAAAAAAAAAAAAAAAAAAAAAAAAAAAAAAAAAAAAAAAAAAAAAAAAAAAAAAAAAAAAAAAAAAAAAAAAAAAAAAAAAAAAAAAAAAAAAAAAAAAAAAAAAAAAAAAAAAAAAAAAAAAAAAAAAAAAAAAAAAAAAAAAAAAAAAAAAAAAAAAAAAAAAAAAAAAAAAAAAAAAAAAAAAAAAAAAAAAAAAAAAAAAAAAAAAAAAKr2oaiXS+hrrcoVT0tI+5pW+LpnrtZhPHlc/QigZ9R6zu7u1VLpJVS/sbU3F+nIYXIu1J2sRUlaicLukRzd3l9HGnas1XadJ01LUXyodTw1M3cRuRiv9varsYTno1f8AcZHV6N1rH2Ts0nT2O0sbTRtljqIrm9Zu/a/vN7UWPG5XZ4z44z4klfb/AB6ssPZTeMN3VN7p1lZ1RsrWSI9PqcigWtO1bTUVbJSXFblbKpGd5FDXUEsL6hudqd01Uy9VXhERMr5cKSWmtdWm/wB4mtMUdworpHF3/otfSPp5HR5xvajk5TJXu0aNknap2Zd4xrsVFaqZTPKQoqfeiL9R8NW+z2/6EVvCuoq1rvendquP4gWK99olktV0qrejLjX1NGiOrPV9HJUNpUVFVFkc1MN4RVx14Ptde0DTVs07bL9U3Fq2i4ythgqY2q5qucjl5wmUxtdnPKKmF5Mz7JaDUs8OpYKLVFFba2K71Lq6lntiTyo9VT+sVyyNVWuROFxjhT5XKxU9l0roGgp7vTXqjdrKF7JoIkZE3Lpd0bWo5yYR27xAvF51Ta7vR6brVr77Zopr1DT07Up3Quq3qi7Y3tcmVidnqvHBN6k1xabDdI7XKyurro+Lv/Q7fSvqJWx5xvcjU4TPmVjtv/8Amuz7/wAU0X+9x+aBcyDti7RYaz2K+d1HLDvXCyQJEqIrE8UReFVPHAFutmtLDcdOVV8hr2st9Ir21TpmujdTuZ8Zr2Km5rk8sZXKYzlCLtvaXYa2voaV8d0om3B6R0VRW0MkENS5Uy1GPcmMqnTOM8Y6kBrrUOlrTo7Wt1tFtt93nhqIorhBLEr6eSpVzGt35Ta5W5aq7fFMKqLyVftWhvVPSaOfetUUFek96o5I6Omo2QonX22O3K5zUzj/AMyAanqDXlksV79T1j6qS6OgbPHS01M+aSVqq5ERiNRcr7LlXyRMqdWkdXWvVcdZ6sdUR1FHIkVVTVMLoZoHLyiOa7pnC/wXyKxTMav9ISterWq5um48Kqcpmod0PGjuO27tCROEWnt6r717pQOvtj1BXWKzWiK3VzLZ6yuUNDNcXtRyUsbkcrn88Ivs4yvCc9OpHVGktT6WWmuelNRX3UMnfM9Kt12q45WTwqvtd25yN7tydUXP8ehZNe3qxUKW206polntt4lWmWWWNrqeN6JlqSK5U25/srzynhgzzXFnj7K6GjveibnWwtfVxxpYpKhZoKxHuRFbG12XI7C5ymQNJ1Hra1WG5R22RldXXR8XfpRW+lfUStjzje5Gp7KZ4yuD1bdbWS46ZuN9pZ5VorckvpbXwuZLA6Nu57XMVMo5E8Cq1dfcLt2oXqz2Ce1WKooaOGSpr5KNs9VV70y1qZVvsNTqq5wqp5lJsEr5LD2295c4ro5IX7qqJjWMld6PIiqjWqqJymOPIDRF7W9LpTU1YrrklqnVrUuS0EqUrHLxtdJjGUXhcZwqKngfd/alptlXTMe6vZRVMyU8FydRSJRyyKqoiNlxheUXlOOFXOCt6jjY7+jCxqtarUsNM7GPHYxc/wAT32xxsh/o81TYmtY2OkotiNTCNxLFjHkBfNVastemG0jbk+d9TWPWOmpaaF0007kTKo1jUVVwnVenKeZ89LawtWpJ6qlonVMFwpMLUUVZA6CeJF5RVY5M4XjlMpyVStdBTf0h6GS4JsSosCw0Mj+GrKk6q9rV/vbV/gvvPnc3ek/0hbKlqe1ZaW0zJdFYvSJy/wBWx3v3qi4645Ambj2n6foqita1lzq6ahe6OrraShkmp6dzeXI6RqY48cZwXGgrKe4UNPWUUrZqWojbLFI3o9rkyip9KKYtaLjcr72fXm90F4sumLCjqpiW6C3xu2oiqi965XIiPcvOEb4p1yXTsIcruyTTSquf8HVP4PcBfAAAAAAAAAAAAAAAAAAAAAAAAAAAAAAi79d0tK27MKy+mVcdJ8bG3dn2unPToShnOtNOtp5bO9LpdpPSLpFHiSqVyR7t3tM8lTwXwNeLHHLLWTD+Izyww3hF/rlqUo5fQUiWq2/1aSqqMz78c4KjY57xHruShu9wbUt9XrOkcTNkbFWRqYROq4x1XnksdktKWpkrUra6r7xUXNXMsitx5Z6EFF/nWm/7pT/ioThrWUnpXk3vHK9u7p1jeZ6KWit9BUQ0tVVq5zqmbG2CNqZc9UXjPgmTs0u2FKSZYby+7q5+XSula9Grjom3hE9xAaooqWftAsbrpEx9HJA+NiSY2LIiqqIuePFMJ4qfWCnpqLtJZFaWRxNkoXOq4okw1MOTa5UTjd/y+kv0y4ST1tn15TkuV8b05LfFW6kdd62pvVdQOo6qSCKGnkRjI0ZjCvTHte/JYdD3Opu+l6KtrkT0h6ORzkTG7DlTdj34KrZbHbdUU1zud5kVK180kcrWP7v0dGrhEVE4VcJnK5PVNVXu7dndPDbKdKiWR7qZ743MhzA1VTLc8Iqom33cl88ZlOn95/RnxZ3G9Xncv777/wDD0t+r7jrm0Pppnx2WWSaGJrVVEn2N9p6+aZVET/VNEMquVVd6e/6YjTTaUrqVJW01MlYx3epsRFTciYbhOeepqULnvhY6Rmx6tRXMznavimfEz55JMdev7tv4XK25S+d/2j2ADndYAAAAAAAAAAAAAAAAAAAAAEderJbr0lG26UzahtJUMq4WucqI2VmdrsIvOMrwuUJEACvU2i9PU0VNFT22OOOmrluMLEe/EdQvV6JnjqvHT3FhAEfX2W33C5264VlMktZbnPdSyK5UWJXt2u4RcLlOOcnmrsVtq77Q3mopWvuVCx7Kefc5Fja9MOTGcLlPNCSAFV1L2e6V1LXpW3qzQVFXt2LM1z43PTycrFTd08ckjNpeyy0VrpFt0DaW11DKqjijRWNhlZna5EbjplevHJMgCNvNjt16dQOudM2daGpZWUyq5yd3Mz4ruFTOM9F4ODVOitO6qkhkv1rhq5oUxHLlzJGp5bmqi45XjOCwgCJotN2ahsC2SltlLHaVYsbqVI0VjkXruReqr4qvKleouyjRFFG5lNp6mZukZLv3vV7XNXLdrlduamfBFRF8S7gDgbZ6Bt9feW06Jc306Urp9y5WJHbkbjOOq56ZPykstvpLzX3anpkZcK5sbaibcqrIjEw1MZwmE8kJAAct1ttFdqCWiudLBV0kqYfDMxHtd9SlZsHZpo+wXFlfarFTxVkf+Lle58qx+9u9V2r70LgAKzqrQemdV1MNRf7RBV1ELdrJVc5jtvkqtVFVPcueqnui0Rpuhgu0FFaYKeC6wtgrI4lcxsrGtViNwi4b7LlT2cdSxgCKn0/a6jTiWCaka60JA2m9H3Ox3bUREbnOeiJ45P28WC2XiwvstypWz2x7WMdArnIio1UVqZRUXhWp4+BKACI1Lpuz6noUo79b4a2BrtzUkRUVi+bXJhWr9CoeNL6WsmlqWWnsFuho45Xb5Fblz5F/0nOVXL1XqvBNACoVHZpo2ovkl3n0/Rvr5HK971RdrnL1crM7c+OcZzz1J+wWa36ftFPbLPTpTUMG7u4kcrkblyuXlVVeqqpIAAAAAAAAAAAAAAAAAAAAAAAAAAAAAAAAAAcqW6lS6LcUiT0xYu5WTK/EznGOnU6gNosl8uO622jutItNcadk8Krna7wXzReqL9B8rNZbdZo3sttKyBJFy9UyrnfSq5VSRBPVda32R0Y76td0HcdKWS41bqqrt8b53fGciubu+lEVEX6yZghjp4WRQRsiiYm1rGJhGp5Ih7BNytmrSYY43cjkqrdS1VbS1c8SPqKVXLC/Kps3Jhf/ANKdYBXaZJAABIAAAAAAAAAAAAAAAAAAAAAAAAAAAAAAAAAAAAAAAAAAAAAAAAAAAAAAAAAAAAAAAAAAAAAAAAAAAAAAAAAAAAAAAAAAAAAAAAAAAAAAAAAAAAAAAAAAAAAAAAAAAAAAAAAAAAAAAAAAAAAAAAAAAAAAAAAAAAAAAAAAAAAAAAAAAAAAAAAAAAAAAAAAAAAAAAAAAAAAAAAAAAAAAAAAAAAAAAAAAAAAxmk1xd3dq3pclQ79jKi4P09ExzMIlU1iKkiY67pEc1F6Y+7TdT6ntGl6emqL7WNpIKiXuI5HNVU37VdhcJxw1eoEyCp6f7QdP329+qaSeqir3MWWKKqpJYFmYnVzN7Uyn3n5fe0PT1lvL7VUz1M1dE1Hzx0lJLP6O1UyjpNjV2pjnzAtoMz7F71HX2TVtynuHfULb/WviqJZVVjYE2ubhV6NRFz5ISdH2qaUq6qnjZW1McFS9IoKyajmjp5nrxhsjmo3+OEAvIKzqvXOn9K1cFLfK11PUTxrLDG2F71kRFRMN2ouVyqcdSOuHajpa3LSR19ZUQVFXSNrYad1LKsr43OVqIjUb8bKL7PXjPTkC7gqNz7Q7Dbm0LJH1s1ZWU7auKjp6SSadInJw5zGoqt+vBMaY1Fa9T21a6y1SVFOj1ifljmOjenVrmuRFaqeSoBLAAAAAAAAAAAAAAAAAAAAAAAAAAAAAAAAAAAAAAAAAAAAAAAAAETb7y2sv90tiQqx1CkSrJuzv3t3dPDBMlu9K3KTUv2lgQF8prvcLtT0tJUSUVrSNZJ6mFW9452cIxM5VPPODgsVRW0uqq6xTVs1bTNpkqI55cLJEqrjaqonPXJece5vbO8ustWfstwKnX2Sahop6qp1Ld2wwsWR67mdETP90+NnulVZtAuu95llqZnNWZrXrlcOVEjblE97fDxUn49zcu0fNq6ymu21yBVtNemTVrZ7pfYp6tWqrrfArEZFnwVE9pVTzUtJTLHpumnHn1zegAFVwAAAAAAAAAAAAAAAAAAAAAKv2m6i/ZbQ91ukap6UyLu6Zv8Aemf7LEx4+0qL9CKWgjL7YrbfmUbLtTekMpKllXC1XuajZWZ2uVEVN2MrwuU9wGJ1WmNaR9k0Wk6fSUMclM1s8dbHeWulSoa/vVka3Z1V2eN3RcZ8SZ1HfINX6e7LLsrGOSrvlM6WNUyjZEZIj2/U5F/gbMVql0NpykgpIKe3JHDSV63OBiTSYjqFz7aJu6cr7PxfcBW+0PjtV7MnJw7v65M+5YEPHY26nZde0COTDbkmoql8yO4d3S47pf8AVxux9ZerjY7dcbrbLlWU/eVttc99JJvcndq9u13CLhcp5opB6n7ONJ6nujLlerRHPWoiNWVsj41eiYwj9qpu6InOeOAMhkVZ+xLtPdalR8DtQ1L0WDlFg76FXK3HGNmfdg0XtXnsbuxO6PYtOtrkoGpQo1PZVyonc7E+nbj6C4WHTVn0/Q1dFZ6CKlo6qZ88sDcqxz3oiOw1VVERURE2phPcQNt7LNGW28R3OjscLKqKRZYkWR7o4n5zubGrlY1comMJxjgCowQ1Xwo9mbby1H3KOxSrOr0yqTd21Hr9OVd/E7qyNj/6TNC57GuVmmlc1VTO1fSHplPLhVT6zQqmxW6pv1Hep6fdc6OJ8ME29ybGP+Mm1F2rn3ofjtP2x2pmagdTZu7KX0NtR3juIdyu27c7eqqucZ94FGnuNyuvabqG0aYbZLRU0FPTrWXGoo+/qKlXt3NRERzctanHtKuODh7Cnyuvev0qK6CulS7JvqIGbI5HbcK5Goq45TzXoW/VvZ3pXVtdFWX+0x1NVG3YkrZHxOc3ycrFTcn0khpvSdj0zLWyWG3RUK1isdM2JXIxytTDcNzhvCr0RM+IE4AAAAAAAAAAAAAAAAAAAAAAAAAAAAAAAAAAAAAAAAAAAAAAADivFvW50TqZKuqpMqi97TSbHpjwyZ7Z9NLPrDUFJ66vEfo6Qf1zKnEku5mfbXHOOiGnjBrhy3CWT7YcvBjyZTK/SCqpKGSSLTlVU1KzvpmyI9ZFa+RrVRM70wqu4yv1kLpuBtk1vXWejkWelmpUq3ukw6Rj923Cv6qmFzzn+dmvVkt16iZHcqZsyMXLHZVrm/Q5OU6IfllslvskUkdtpmwpIuXuyrnOX3quVXqpMzkxs9q5cWVzl7dvv716QusXetLlbdOxqqtqHekVePCBi5x/5lTH1DtPjV2jaraju7Y+Nz0Z12o9M4LBDbKSG51Fwji/wudrWSSK5Vy1OiIirhE+jB1SxslifHKxr43orXNcmUci9UVCJydNx19Jy4bnMt+aoOr7bardY7bWWSGCCsZUQ+iSQIm6XKpwq9XZTK8mgJ0IG26QsdurkrKShaydqqrFV7nIzP8AdRVwn1E8OTOZSSd08PHcbbZJv0AAybgAAAAAAAAAAAAAAAAAAAAAAAAAAAAAAAAAAAAAAAAAAAAAAAAAAAAAAAAAAAAAAAAAAAAAAAAAAAAAAAAAAAAAAAAAAAAAAAAAAAAAAAAAAAAAAAAAAAAAAAAAAAAAAAAAAAAAAAAAAAAAAAAAAAAAAAAAAAAAAAAAAAAAAAAAAAAAAAAAAAAAAAAAAAAAAAAAAAAAAAAAAAAAAAAAAAAAAAAAAAAAAAAAAAAAAAAAAAAAAAAAAAAAAAAAAAAAAAAAAAAAAAAAAAAAAAAAAAAAAAAAAAAAAAAAAAAAAAAAAAAAAAAAAAAAAAAAAAAAAVntJ1F+yuiLtdm4Woii207f70zl2sTHj7Sp9WQKHSa9u7+1ZXSTImjJq99hiR0aJisYxHb84yu56OYnOMeBpWpNS2jTMFNNfa1lHDUzdxHJIi7d+1XYVUThMNXleODDamx66h7KodLQaGkimpNtTHcWXmF8rahsnerK1mM5V2eEXOFxksuqb1T6v0/2W3VY43x1t8pnyRqm5GvRkiPb9TkVPqAvGm+0PTWo7ststlc9a7YsrIpqeSFZWf3mb2puT6D81F2i6Z09d3Wy5V70rmMSSWKCnkmWFq8o5+xq7UwqLz4ckH2hJjtW7Mnpw/v65ufHCwJlDz2NJAl17Qd2PWP7RVPfbvj91x3X/lxux9YFysGqbLqC3VdwtFfFUUNLK+GadMtY1zERXe0uEVERUXcnHvIKg7U9IV9xgo4Lo5FqJO5gmkp5WQyvzja2RzUaq59/PgZVL/mT7UfVWO4/aKqx6PjHcd9Du24427M+7Bo3az6k+BK67fR/VXq9voW34ucJ3Gz69mAPlrGvq4e23s/o4aqojpKiKuWaBkioyRWwqrdzei4XlMk3f+0jTFiuVRQV1dK6ppkR1S2nppZ0p0XxkVjVRv0LyUaq9N+FDse9bZ9Y+rKn0nd1730X28/XkktN3K736TUtRpb1Bp+zU1yqIZ3z0bppaiZqJ3ksmHsaiLx1yvHIGm2u4Ul1t8FdbaiOpo52o+KWNctch1GY/wBGxf8A4O2T3PqP+O804AAAAAAAAAAAAAAAAAAAAAAAAAAAAAAAAAAAAAAAAAAAAAAAAARdBeI6y+3O2Nic19Ckaueq8O3t3Jg+15oX3GhdTx1lRRuVUXvad216Y8MmfWfTs82sNQUrb5dI306Qbp2S4fLuZn2l8cdENuPDHKW2/wC9nPzcmeGWMxnm/wBqt16bd62901DQSyUNAkSzT1bGI5zlzhI25RURfE5LJWV9Hq+qsdZWOroPRUqopZGtR7Pa27VwiIvmSN4ujbBa6aFO8ra+REgp4lXMk70TGVXy8VU8adtM1tgqq2ud6Vd6v253N4ThPZjbnoidCZf0d5/L/Ktm+Sat35v8vTh19fam3UTqS0qnrF0T51dwvcxMTLnr9OMJ7ya0zUS1enbbU1L980tNG97lTGVVqKqlFqm3ansmoaq6WWo9NroZO9n76JWQxo1Ua1E3Zwie7KnbTzXqq7PqCltlunbJJDFCsiSxovdbE3Pbl3inCIuF5yXy4p0STXnyyx578lyu/HjVfrtS19bri2Q0cmyyyySwNVERe/cxuXOzjoiqiJjyUvxmVxmqaPUGk4YbFUU7aXvmwwLNEqyJsTOFR2M+K565NLjcro2uc1WOVEVWr1RfIpzYyTHX+92n8NncrlLfv+0egAYOsAAAAAAAAAAAAAAAAAAAAACMv1htt/ipI7vTekx0tSyriYr3NRJWZ2qqIqbkTK8LlPcSYAFapNDadpKajp6a3d3BR1y3KnYk0mI6hc+0ntdOV9n4vPQsoAjbjY7dcbrbLlW0/eVttc99JJvcndq9u13CLhcp5opmeuLTbKnVdbVXvQN7rZl2shrrPOqtrGbU4mRr2K1UXj2kXhOuDXgBQOx/S1RYdH1tNd6GnpH3OtnrX29uHsp2SYRIfJURrUTy5wdND2W6Qoa+CqgtSqsEnewwyVMr4Yn9dzY3OVqL9XBdgBFV2n7ZXX623qqpd9ztzZG0s3eOTu0e3a72UXauUXxRSBufZjpG5Xme51dqR1TUO3ztbPIyOZ3m+NHI1y+eU58clzAEZpyw23TdrZbbJTei0THOe2JHuejVcqquNyqqJlV46EmAAAAAAAAAAAAAAAAAAAAAAAAAAAAAAAAAAAAAAAAAAAAAAAAAAPLY2Ne57WNR7vjOROV+k9ACHvGmrVeKqOpuFO6SeNuxr2zPZhM5/sqnmeLdpa026tjqqSCVk8edrnVEjkTKKi8K5U6KpNgt15a1vsz+LDfVru+NbTRVtJNS1LN8EzFje3KplqphUynIoqaKipIaamZsghYkbG5VcNRMImV5PsCN9tL6m9uOrtlJV11HWVEW6opFcsL9ypt3JheEXC/WdgA3skk8AAISAAAAAAAAAAAAAAAAAAAAAAAAAAAAAAAAAAAAAAAAAAAAAAAAAAAAAAAAAAAAAAAAAAAAAAAAAAAAAAAAAAAAAAAAAAAAAAAAAAAAAAAAAAAAAAAAAAAAAAAAAAAAAAAAAAAAAAAAAAAAAAAAAAAAAAAAAAAAAAAAAAAAAAAAAAAAAAAAAAAAAAAAAAAAAAAAAAAAAAAAAAAAAAAAAAAAAAAAAAAAAAMhpO0C6ydq7onyx/sbLWvscSujRqpWsjRyruxlcu3MTnHu8TSdQ6itOnY6WS91sdHFUzdxFJIi7VftV2FXGGphqrlcJx1AlQVTTHaHpfU9zfbrLdGzVrWd6kT4ZIlez+83e1NyfRk/NS9oultNXRLdeLq2Gt2JI6JkMkqxt837Grt6ovOOOQLYCtM1zpyTT9yvkVzjltNumdBU1Mcb3ta9NucYTLk9pvLcouep3X3UlqsNgW93Wq7i2IjFWbu3u4eqI32Woq8qqeAEuCturs9okVAl8c3/AKLWoW0ei8OTvUb3/fY467dmfeZFJqK8p2H69uCXWu9PpbzLDBUd+7vImJNEiNa7OUTCqmE81A/oEEJqjVVl0tSwT32uZTNnf3cTEa6SSV3k1jUVzuqdE4yNK6qsuqqaeaxVzalsD+7mYrHRyRO8nMciOTouMpzhQJsAAAAAAAAAAAAAAAAAAAAAAAAAAAAAAAAAAAAAAAAAAAAAAI683aK1LQ99G9/pdUylbsxw52cKvu4JktuojLKYzdSIOevkqIqKZ9FAlRUtblkSv2o5fLPgVayXK+O1rLbrxLS936CtQ2Knb7LV3oie0qZVcZ93JbHC5S30pnyTGzGzyuIK7e33irvlPbrZI+ipO5Waat7lH5XOEjblMZ8foOayV1xpNWVNjuNWldH6KlVFOrEY9qbtqtcicL9JPx9t7VvNJlrX7bWsFPludyvV1q4bXXwW23Ukvo7qlzGyPmlT4zWo7hETP/7+FujRWxtRztzkREV2MZXzIywuPlbDkme9PQKG/U9dV64t1NRPRtmkklg3bUXv3sblyovXCKqIip1wpfBnhcNb+zj5ceTfT9AAKNAAAAAAAAAAAAAAAAAAAAAAK52jahTSuirtd+FmghVIGr/ald7LE/8AUqFjIvUFgtuoIKWG703pENNUMq42K9zU7xmdqqiKm5Oei5RfIDA6i065g7K4NNQ6Dqoqmke2sZc0u0D5W1DZO9WVGdVVV3JjOcLjKls1fd6TWOn+y65uijkgrr3Svkid7TUdskRzV88ORU+o2QrNHoXT1HSUNLTUCsp6GuW400ffyKkU659pPa6cr7PxeegFa7QWtZ2sdmcjGo2RZq5iuROdvcJx9B57HGU77t2gyyYdcl1DUslV3L+5THdJ/q43Y+svVysVuuV2tdyrIFkrbY6R9LJvcndq9u13CLhcp55M01rQ2pdXXGqumjNUPqXsaxtbZJJFZXxo1PZkSJ7dqouUw7wROcYAqjo4W9iXaoyjaxKdt+rEiSJE2oxJIsYxxjBae3GWN3YErmvaqSR0Wxc/G9uNePPjkmuyPSD7Zoa5UN8tsNLFd6yoqn23KObBFKiNSJfoa1P4n2d2P6OlpG0tVQ1lTSs4hhnuE72QJlFxGiv9np4c44A+S/8AaDg/8LO/920y+T/s+9o3/fs3/HhP6D9SW/8AaJt97j/pRtItEk293+JV6P27c4+MiLnGfeRa6E06unblY1oF9V3GodVVUPfyf1kiua5V3bspy1vCKicAV3WVdNJ2kWe16et1sdqRKB9SlxuO5WU1Pv2qjGNVFc5Vz4p/DOIfQaXGHt11PDdauhqat1qgdM6ihWJiuRyI3LVc5dyIvVV6KX3VOjLLqeopKm5wSpW0iKkFVTTvgmjReqI9iouPcvmvmfPTWg9O6auklys1A6CulhWCSZZ5JHSNV25Vducu52f7S8+GcAWcAAAAAAAAAAAAAAAAAAAAAAAAAAAAAAAAAAAAAAAAAAAAAM31nZa6Ga0OkvlZMk1ziYxrmtxCq7sOT3oaQfOaCKfZ30TJNjkeze1F2uToqeS+804+S8d2x5uKcuOq4LHbqm3Rytq7lUV6vVFa6ZETZ7kwQcX+dWb/ALpT/ioW840tlKl3W5pGvpqw9wsm5fiZzjHTqJn5t+zLj7YzH6rm1DeYrNSNerHT1Uru7p6dnxpXr0RPd5r4HPpi0TUSVFdc3tlu1YqOne34rETpG33J959rtp23XWsiq6yOVaiJuxj45nxq1P8AyqnmKDTtBQ1bKiBarvGZxvqpXpymOjnKi9SZljMNTyrcc7ybs7Tx3/5VDRWnbTc6W7OulM2oq2Vs0UiSOX+r58E8PPJ5ttXdX6B9GtbaisctTJSsqY8K9sCOX20yqZXHCcp9PBbLlpa13CskqpopWTSojZlhmfGkqJ4ORqpklaGkgoKOKlo4mxU8TdrGN6IhplzS9/LLD+Gs7eO1m55rN6+rSjv2k4aay3GnipO+bHC9rN8mWJ8XDsKviuVTqabE5XxtcrVaqoi7XdU9ynLV2ykq6+jrJ41dUUiuWF25U27kwvHRfrOwz5M5nJ2bcPFeO5bvn/AADJuAAAAAAAAAAAAAAAAAAAAAAAAAAAAAAAAAAAAAAAAAAAAAAAAAAAAAAAAAAAAAAAAAAAAAAAAAAAAAAAAAAAAAAAAAAAAAAAAAAAAAAAAAAAAAAAAAAAAAAAAAAAAAAAAAAAAAAAAAAAAAAAAAAAAAAAAAAAAAAAAAAAAAAAAAAAAAAAAAAAAAAAAAAAAAAAAAAAAAAAAAAAAAAAAAAAAAAAAAAAAAAAAAAAAAAAAAAAAAAAAAAAAAAAAAAAAAAAAAAAAAAAAAAAAAAAAAAAAAAAAAAAAAAAAAAAAAAAAAAAAAAAAAAAAAAAAAAAAAABXu0LULdLaMu14XCyU8K9y1f7UrvZYn1uVAKJSdoVzk7Wn0r3xfsfJVvskUisRqpXMjR65XGVy7LETOF/36Ve77bLEynfeK2GjjqJe5jfKuGq/CuxnonDVXK8cGDVNq1bTdksFgh0XdGXKie24MuS1lO97alsneukRu7cq8uROq4XxUs+tbnRaz0/2YXF8MctJcL3Svkhem5udkm5i+eHIqL9AF909r3S+oq6Wis14p6mqjYsixIjmuVqdXN3Im5PemSA0j2p2nUWubtYoKiBYI+59Xyta/dUq6NzpM5TjaqeOD46/jZH2tdmk0bGtldLWxK9Ewqs7j4ufLlePefXRP+eXtK/1LZ/wHgWTSlf33r+Sov0VziprjNGq9wkCUSNRqrA5f7W1FzvXrkjGdquh3pOrdRUe2FFVyqjkRURUT2Vx7fK/2c+ZmF5kmi7J+151O5zXLqSoa5W9divp0f+FXFo7d6G1wdg9XHboaf0KnZSrRK1EVGt72NEVi+9qrz4oqgabLerfDeaW1SVLG3CqidNDDhcvY3qvTHB+eurd+0HqT0pnrX0f0v0fC7u63bd2cYxnjqUK9uRvbro7cqJvtVU1ufFeFwn1Hyke1n9JJ7nL7LNLKrseH+E5Asty7SNIWy5y2+uvtLFVRPSOVPac2N3k56JtavnlUx4ltje2RjXxuRzHJlrmrlFTzQwSlqLjdOx2/VmlbXY7VpCalrXxw1Tpp6qVqb0fI52cI9VauMq7HHOENN7IXOf2X6XVyqq+r4U58kaiIBB66vd9qe0K2aSsl2isMU1BJXyV7qdsz5Fa5U7tjX+ymETcq9ceWOZfsnv8AcNQadq5bpPFWPpK+eiir4WIxldHGqIkzWpwiLynHGUXBQ9d2Sq7Vtaag0/6VFboNMwx+jKjEc+eeePdl7urY8JtVqdcoq54RJnQWubjctS2vSkVjprXNbqab11TJErW0ys2ti7hUXbtcqoqdfZXheMqFn7Xr1X6d7Ob1dbRMkFdTMY6KRWNftVZGtXhUVF4VSp392v8AS2lKjUi6uorsylhbUSUVVa2QNe3hXIj2Oyi4XjzUmv6QH+Z/Uf8Aso/+MwpusezRlDoCsu7tW6lrXUNJ6cykulY2ppZHRt3ox0Tm4VFVMYX7wNVm1baaLS1FfrvVMt1FVQxyt79cOy9qORmOqu56ImeFPWmdXWHVHfpYrlDVvgVO9jRFY9meiq1yIqJ78Ge3nUbLyvZvLBZKSo1VdKd1XQLVTPZTUa9yjpHq1vxuPipjPjlPHmsyXiL+kbD6+fbVrJNOqqrb2PYxW98uN25VVXZT+GANAh1/paa8QWqG8077jNO+nZTtRyuWRiqjkVMccovK8LjgoHZf2oWei0ZB+2Gomrc31M+e+V0j0Ykio3dhF2pxhM4JrsNoqaOj1VVsgiSpl1BWo+Xam5yNemEz5J5e9fM4v6O9HQP7MqjfBTuSorKltVuai94m5Uw/z9nHC+AGjXDUNpt9tprhV10LKGpfHHDO1dzZFf8AEwqZznzPd4vduszqJLnVMp1rahlJT7kVe8ld8VqYTquD+fmP29gtjw7/AKPh1G1tLIq9YEqXYXPlnJoPbkqek9n6ZTK6oo1x9bgLfqfWundL1EEF9usFJPMiujiVHPerfPa1FVE968cKV/s41A++6y1u6G4+m2uGakWjVsm6NjHQbl2+WV6+84OzxjJ+13tGqKxqOuEMlJDEr0yscCxqqI1fBFwiqidcIRtgfabTeu2KWenRbTCsclRDS+wrm+juWRG7VTDlVXeKcr4AXSLtL0dLdG2+O/0bql8vctxu7tz/AO6kmNir9Zbz+ddd+vajsCmqIrfp+2aXfTU81NRRLLLURROkYrP6xVRu7lFVceK+Jv8AZ3OfaKF71VznQMVVXxXagHWAAAAAAAAAAAAAAAAAAAAAAAAAABH3e6wWv0L0hsjvS6llKzYiLhzs4Vcr04JAzrWlrukUtndNfJpmy3SJsTVp2J3Tl3YcmE5x5KacWEzy1aw5+TLjw3jNr7cJZ4aKWSkp/Sahrcsi3ozevllehV7Hdb5JrOW3Xj0WONKJahsNPlUTL0RMuXlV69OOSestFW0TJUuFzkr3OVFar4mx7Pd7PUgov8603/dKf8VC2Emsp57K8ly3jl3nfw7b7Leaq8QW20vWigWFZpq50PeInOEY3PG7x58DmsNfcqXVFRYrrVMrsUyVUVSkaRuRN21WuanH/wC3v4l9Q3mGzUSSyNdNPI7u4Kdnx5nr0ahyaYtM9K6ouN1c2S7VuFlVvxYmp0jb7k+9RLOjvP8A6WX5J03v9+tenBLc7perrWU1mqqegoKSTuH1cjEkfJKnVrWqqJhOnJJatus1i0zUVsSNmqI2ta1X8IrlVG5X+OcFS0bpm1Xekusl1gdUVLK6aNyOe5O75ToiLwvvPEdxlTs2lhlcysa+qdQRTzpuYrFfhJF+hOi+aIa3jx6pJ9WMJy5TC5ZebLf9iVrKi+6enttTX3WO5U1XUsppYfR2xqxX+LFTrj3l3M4vFkXS/qm5+sKu5JT1DIu4rJN7fa4zGn9lU8Opo6GXLrUs/wAN/wCHt3ljf2+9gAMXSAAAAAAAAAAAAAAAAAAAAABEam07b9SU9JT3aN8sFNVR1bY0dhHPZnbu8289CXAAqVF2f2GiordSU8U7aa33BbnTR98qpHKueE/0faXj3ltAETddP0F0vNoulWx61dqdI+mVr1REV7drsp48HE/R1t/bH9poX1tPcnsaydIahzYqhGorW94zo7CdPoQsYArT9PUVmsWo2262OuK3OWetnonyJiplkaiOZl3DUdtRPJDDr9pii1FY4NOaYsOsoa2WViRRXhZm0dqaj0V7vaVW/F3ImNyqirjnhf6WAFc1Vo61anSgfcPSYaygcrqWrpJ3QzQqqYXa9vguOhyab7PbFp6/yXuiSskuktOtPNUVVU+Z0rVcjlVyuVcu9lEz5IW4AZ+7sj0sqVEKMuLbZO9ZXWxldI2kR6/2kiRcdeUTonHBcNPWilsFlo7Vb0elJSRpHEj3bnI1OiKpIACrah0Lab1d23ZX19vuqR9y6st1U+nkez+65Wr7SfSc1h7ONPWC7091tUVXDcY0kSWoWpe99Tv+N3quVd/KZ56LyhcgBF6nsVFqWxVdourXvoqpEbI1jtqqiORyYX6UQqq9lGnZu6ZcZbxcqeNyObTVtymliynTLFdhfoL8AK5qvRtn1NDQtr4poZqB2+kqaSVYJadcIi7HN6JhE46cJ5IcWn+zuxWK/MvdGlbJde7dFJVVNU+Z8yOxlXq5VyvCY+guAAitO2Gh0/BVw21r2sqqqSsk3u3ZkkXLlTyT3FQZ2QaZgo5KWifdqKnnylTHTXCSNtSiqq4kRFw74yp0zjg0QAQNbpCx1mkv2amt8aWVI0ibTtVWo1EXKKipznKZz1zyQEXZVp/023VlZPd6+st88c9LNW18kzolYuWtTK4RucKqY5whfQBVdSaEtF9vEV2kkr6G6Mj7lau31T6eR8ec7HK1eUPentCafsEF1gt9F/g90a1tXFK9ZGyojFaud2c5RVznqqqqlnAGcv7HNKy0K0FR61qLc3PcUk1wldDTKvjGxVwi8ryuepoNHTspKSCmiVyxwsbG3cuVwiYTKn1AAAAAAAAAAAAAAAAAAAAAAAAAAAAD5VFNBU936RDHL3T0kZvajtjk6OTPRU8z6gGthwttVMl7ddUR3pboPR1Xdxs3Z6fSdwJlsRZL5Qt505RXavgrKiSqjqIWKyN8Ezo1ai5z0+k/bfp6ChrI6hlbcpXMzhk1W97Fyipy1VwvUmQW68ta32U+LDfVrugLlpW311bNVK6qp5Z2o2f0ed0aTJ/pInU7lsluWy+qVpY/V+zZ3POMZz165zznrnkkQRc8r22Tiwlt15V6k0lboKqnnlfWVS0y5gZU1DpGRL4K1F44LCAMsrl5q2OGOH/bNAAKrAAAAAAAAAAAAAAAAAAAAAAAAAAAAAAAAAAAAAAAAAAAAAAAAAAAAAAAAAAAAAAAAAAAAAAAAAAAAAAAAAAAAAAAAAAAAAAAAAAAAAAAAAAAAAAAAAAAAAAAAAAAAAAAAAAAAAAAAAAAAAAAAAAAAAAAAAAAAAAAAAAAAAAAAAAAAAAAAAAAAAAAAAAAAAAAAAAAAAAAAAAAAAAAAAAAAAAAAAAAAAADJqTtDuEva3JQOWH9kn1L7NFNtRqpXMja9UVV55VVYidF4+vSrxebbZYoZLtW09HHM/u2PmejUc7CrjK+5FX6gO8EBFrHTsun5L4y8Ufqhj1jdVuftZuRcYyvVc/xPFl1vpm9zU0NpvdDVT1Lntiijk9tytbucm3qmE558ALECA1HrLTump4ob7eKOinkTc2KST21b03bU5xwvPTg65dQWiK1U9zfcaX1dUOa2KpSRFjerlw1EcnC5XgCUBW7VrrS93u/qu2X631VeudsMUqKr8Jldq9HYRFXjPQrsXarZpe0v9mW1dCtItKitqkm5WqWVI+4x0zjkDRgViiui0+otUvr79RzUFDHBKtGkaNfb290rnOkd1VHYVyZ6Ih8pO0bR0dVT0z9R2xJp2tdGnfJjDkRW5Xo3KKipnHUC2Ajr9fLXp+g9NvVfT0NLu2pJO9GorvJPNeF4TyPhpvU9l1NBJNYbnTVzIlRJO5flWKvTcnVM4XqngBMAAAAAAAAAAAAAAAAAAAAAAAAAAAAAAAAAAAAAAAAAAAAAAAAA+FfVR0NDUVcyOWOCN0rkamVw1Mrj+B4tVdFcrdT1tOj0inYj2o9MLhfMnV1tHVN6+3UCkvl1DdNRXiC23WGjpKORkbEfTtflVYirz9P+8tNnhraehbHc6tlXUoq5lbGjEVPDhC2WHTO9Z4cvXe0doKNNqmrqdc2+goValqdJJA+Tai99I1uXYXyTLU495eRnhcNb+08fLjyb6foABRoAAAAAAAAAAAAAAAAAAAAABAa+1AzS2jbteX4V1LAqxNX+1Ivssb9blRCfITVemaHVFNRU10WZaemq46vuo3IjZXMyqNflFy3nlOAMRqrff6bshp7NFpO/tvVFI26NuL1geqVbZO9dJjvNy9XNTjOF6L0LNry4UGtdP8AZlXSQsmorleqV8kD03N5jk3McnjhUVFT3GxlMoOzmy0NBbKKnkrUpbbc1ulLGsqKkci59j4vxPaVcdeeoEF2kUlHN2idm1trI4ktL6mrldAqIkbpo4mrFlOnVVx/DxPzWdJTRduXZxURQxMqZY7iySRrURzmtg9lFXxRNzsfSpN9rNJQVmn6Zl0tF1uFO2pa/vrWmaiiciLiZiJ7S4XCcIvXOODP9G2Jl07UbDeLI3UdVQWqGoWrut+dJvndJHsZFGj0ThuVXhE6rnwA++h26kqtY69rrXRaeqq31vLSyvuVTKyZkLERImo1sbkRit5Rc8rnyIjVulLlp3skr7bfXUDoKrUMU8FNRSPdFTwySNzE3c1qoiLu4RPE1XUHZ9a7veZLvT1t2s9zmYjJ6i1VSwOnaiYRHphUXHguM+/hD9m7O7HJpaOwNSqjpG1Lax8iTbpppmuR2973IquVVTn7sAVjtooqWhd2eOoqeGndBqSjgiWJiN2RruyxMdGrtTjpwh9omN//AIlJvZT/AKr56ePpSF11Tpmh1L6q9YOnb6trorhD3TkbmSPO1HZRct5Xjj6TivuiLdd9U0GofSrjRXSkYkXeUVQsaTxI/f3ciYXc3OeOM558MBntx/6w9u3/AHTS/wDspT8baaCP+i29rKOBqPs/pTsMT2pdqO3r78oi5NHm0XbJavVVS59T3mo6dlNWYemGtZE6NNnHC7XL1zyfRdI25dDfspvqPVnonoW7enebMY64xn6gKHW18M0nZ1R0lpp7rqh1u9IpZa2ofHBSs7lm+RyIi7nLhET2VXhVyh50my6Rdv1f67itcNZNp5skiW1z1Y/FQjWuduRF34TH0YLhfuz60Xm32enfNcKSotEaRUddR1Cw1ETUajVTeieKImeP4HjTHZ3aNOag9d0VRcprk+mWlnmqqlZnVCK5Hbnq5Mq72WpwqJhOgFyAAAAAAAAAAAAAAAAAAAAAAAAAAAAAAAAAAAAAAAAAAAAAAABVdb0FzmttyqKa8Op6NtJJvpUp2OR+Grn2l5TKce45dAW+6MtNpqZLy59B3KL6H6MxEwrVwm/rwuF+ouU0bJonxSsa+N7Va5jkyjkXqip4ofkEMVPCyGCNkUTEw1jGo1rU8kRDX5b0dDD4J8nyb/5qos0vpu+1Fwq0WaqkdUPbIvfPakUiY3IiJj3dckPT3e60+iqqmo21lfUR1slDFVQxrK5IkX/Gce7KJz1xyWi4aTo6qsnqYKqvoX1HM7aSdY2yr5uTzJe12+ltdDFR0MSRU8aYa1Fz71XPipf5ZJ37/wA2XwZW9p0+e8+2X1N1go7xpaOlsl6ghoe+RIpaXEk2WplWpn2lzyv0mrwv72Jkm1zNzUdtcmFTPgqeZw19op626W+vmdIk1Cr1iRqoiLuTC549xIlOTOZyaa8PFlx3Ld8/4AAZNwAAAAAAAAAAAAAAAAAAAAAAAAAAAAAAAAAAAAAAAAAAAAAAAAAAAAAAAAAAAAAAAAAAAAAAAAAAAAAAAAAAAAAAAAAAAAAAAAAAAAAAAAAAAAAAAAAAAAAAAAAAAAAAAAAAAAAAAAAAAAAAAAAAAAAAAAAAAAAAAAAAAAAAAAAAAAAAAAAAAAAAAAAAAAAAAAAAAAAAAAAAAAAAAAAAAAAAAAAAAAAAAAAAAAAAAAAAAAAAAAAAAAAAAAAAAAAAAAAAAAAAAAAAAAAAAAAAAAAAAAAAAAAAAAAAAAAAAAAAAAAAAAAAAAAAAAAAAAAAIHXd/j0vo+7XmXCrSQOdG1f7Ui8Mb9blan1gUmk7Ra2btaktKsgXS7p32qKqRML6cyNsjmqq/SrETxVDSLndaC1Mifc62mpGSv7uN08iMRzsKuEVfHCKv1Kfz3VNulN2R09pi0rqpuoaOdt2S4y0catSrSTvHPVe83KmFc3OM4xlPAt3aDW2/Wlg7NKySFk1Bc71SvfC/lFRY5NzHeeFyip7lA0SDWOm56SCqjvltWmndIyKVahqNerEy/aqrzhOV9x4t+ttL3CCqmotQWuWKlTdO9KpmI25xuVVXhMqiZ6FE7UbRbl1v2a0HoFKlC6vnVadImpGuI2qmWomOqIeNb2O1SduGgWvt9KrKiCs75ndJtk7uPczcnRdruUz4onkBpGn9S2TUTJX2K60dekS4kSCVHKzyynVM4X6T4XjWOm7LXsortfLbR1b8YimqGtcmeiqirwnvXBSlo6eh/pF0q0UEcHpGnXrKkbUaj1SfhVx1XhOfchU+ypl9umkq6sXSVlu890qqhbhPW3DZK9+9WrG5ixO2o1EREbnpzxkDca2726hjp5K2vpaeOpXbC6WVrUkXCu9lVXnhFX6EOKx6s0/fqqamst5oK6oiTL44J2vcieeEXlPenBjlw0zW27SXZjp7VbIKp8V+SF8aP7xjov6xWsVeMojVRMeSYLXrSipbf2wdm0tBTQU0kq10MjoY0Yr2JAio1cdUTK4TwyBctMVlXU3G/Mq7tba+KCsWOGKkTD6Vm1P6uXlfbz/AD8cIodb6Xr7r6totQWueuVdqQx1LVVy+TeeV9yGbadrbZbqLteqr8ySS1sukyVEcbla6RisRNiKioqKucdU69SF7R6a7xdllPUN0tYrJa6R1JLSpHWOlq6Ze9YjVTEaIrlzhfa6Kq5VQP6EAAAAAAAAAAAAAAAAAAAAAAAAAAAAAAAAAAAAAAAAAAAAAAAAI+ku1PVXevt0SSekUSMWXKez7aZTC/QerzT1tVQujtlalDUq5FSbukkwnimF4M9s9sv8msNQQwagSKrjSDv6j0Ni99lns+z0bhOOOprx8cyltvhz8vLlhljJN7/xVxvlTeJbrT26zsbAx8ayzV0sSvYxM4RrU4RXe5V6HNZbncWagq7FdJYZ52U6VMNTHHsRzVXGHNzwuV8CSmcssDbSt0dHde4bI6WNrUeqIqIr0aqKiIqoqfWV/TcUtq1tX2+slSuqKmlbVNrXpiTajtuxUzjH0Y/lbGS42f7/ADUytmcst73+n8tO2opdSU8Ek01+oWRRtV73LRcIiJlV+Mdeiay4XHT8NZdHNWWdyvjwzZ/V/wBnKZ8ev1nHriV1atDp+meqS3GT+uVq8sgby9fr6fxPvrGrqrXYEhs1LO+aTEEfo8Kv7huOXYb5J09+Brqxk13puYZXLd1J/wAoyfVdTNrihttC1nqx0kkMkqpnvJGty5Gr5JlqfTkuxlNRX0tDedKRUlsuscNF3ybJKVySSqrUyrU/tLnKr9JqkT0kiY9GubuRFw5MKn0oObGY9OppP8NyXO5bu+/9noAGDqAAAAAAAAAAAAAAAAAAAAAAgtXaYotVUdHSXOSoSmp6uOrWKJyI2ZWLlGPyi5ZnqiYXhOSdAApFv7NbPQW600NPU3D0W13RbrSxukYqMeu7+r+L/i8ucuOvPUu4Agr9piivd7sV0qpahlRZ5XzQNjc1GuVzdq70VFVUwngqC56Yorjquy6gnlqG1lpZMyBjHNSNySt2u3IqZXjphU+snQBBy6Zo5daQamdLUJXw0TqFsaOb3Sxq/flUxndn349xX7p2Z0FRdayutN5v1iWteslXDa6vuo5nr1erVauHLjlUwXwAVaTQtnWj07SQek09PYqptXSsjkzueiL8dXIqqi7lVeUXPidt50zR3bUVivNTLUNqrM6Z1O2NzUY5ZWI129FRVXhOMKn1k4AKtSaGs8MGpIJknqqfUE756yKZ6Yy5MKjNqIqJ5cqqL4lWqOxWzVlsdb7lftT1tIzb6LHPcNzaTavCxt27c4y32kXCKuMdTUgB+NRUaiKquVExleqn6AAAAAAAAAAAAAAAAAAAAAAAAAAAAAAAAAAAAAAAAAAAAAAAD4xUlPFUzVEUEbJ5sd5I1qI5+EwmV8cH2ARraHvmn6W7zQ1DpailrYUVI6mmk2SNReqZ8U+kWPT9NaZpqhJairrZkRr6mpfvkVqf2UXwT3ITALdeWunfZX4sOrq13RsNngjvs92c+WSqkiSFqPVNsbE5w3jPK8rlVJIAi23ytMZj4Rtws9PXXW3XCV8qTUKvWNrVTau5MLu493hgkgBbaTGTdn2AAhIAAAAAAAAAAAAAAAAAAAAAAAAAAAAAAAAAAAAAAAAAAAAAAAAAAAAAAAAAAAAAAAAAAAAAAAAAAAAAAAAAAAAAAAAAAAAAAAAAAAAAAAAAAAAAAAAAAAAAAAAAAAAAAAAAAAAAAAAAAAAAAAAAAAAAAAAAAAAAAAAAAAAAAAAAAAAAAAAAAAAAAAAAAAAAAAAAAAAAAAAAAAAAAAAAAAAAAAAAAAAAAy+k7R6qbtYksawU66cWZ9tirUyjlrmRtkcxVVcY5VuMdU6mi3C5UNtSFbhWU9Kkz+7jWaRGb34VdqZ6rhFXHuA6wQ9FqexVzaR1HeLfO2rkdFTrHUNXvnt+M1nPtKnjg7p7lRU9wpqGerp462pRywQPkRJJUamXK1vVcJyuOgHUDM9Ea9pYoNRu1ffqKnWG/wBZRUnpUscS9zGrdrUTjKJnrz15U0eGpgnpWVMM0UlO9u9srHorHNxnKL0x7wPqCDtOrtO3evdRWq+WysrG5VYYKlj3YTrhEXn6icAAAAAAAAAAAAAAAAAAAAAAAAAAAAAAAAAAAAAAAAAAAAAAAAAAAAAcNLdaaqulbb4lctTRoxZUVuETcmUwvjwTJai2Ty7gV693G5uvdNabMyFkr4lqJqmdquZGzOERERUy5V958rLdrizUdTZLwlPLM2BKmGeBqtRzM7VRzVVcLkv8d1tn82PV0/0/qswKZS3TUV6paq42f0CKiY9zaWKZjnOnRq4VVcipjKouP/0pJ0NzrNQaeo6+yyU9NJLy9KhiyI3GUVqYVPFOvkLxWeUY88y8S/5WAFKvVdqW1uoo/S7XPPVzthjibTvRVz1d8foidS6kZYdMl2thydds1rQACjQAAAAAAAAAAAAAAAAAAAAACD1xfotL6Sut5mwqUcDntav9p/RjfrcqJ9ZOEFq/TFFqugpaK5yVDaWGqjqnRwuREmVi5Rj8ouWKvVEwvCcgfz/UVtfT9lFNbGaT1g3UtHVNu/rKa1f1aVaSd456ruyqYVzcqnTGU8C+do1Xb9aWHs2qnxNmt1zvNK98Tuio6N+5jvryi/WbD1KTb+za0UFss9vgqritLabmt0pWOkYux67l7v4v+Ly5y4689QK9rq3UNq1/2ZU1so6aipkr6pUip4mxsRViTnCIiZOnWf8An07Ov9hcP+CWzWmkqHVlHSxVc1VS1NHMlRS1dJJsmgkTxaqov1oqEPaezaio9U27UVZeb3c7vQtkYyWsna5rmvardu1GoiImVVNuOV5yBW+yDTdluE+ua24Wqiq6qXUVdTukqIWyL3aORUb7SLhMuXp18SA0zX2i09lOvqK/NqZtN22+VVDT09PI5j1i7xitia5FRcK53PPRy54L0nZZR01Vc6qz6g1Da6i5VUlVVOpalqJIr3Kqt2qzCImVwqe1zyq8Es3s90+mhH6R9HkW0vau5Vk/rXP3bu8V397dznp4YxwBlXaDTXSi/Yapn0tZtPRRX6kigdR1KSVDEXdmN22NrUaqJlcOXlE69T+gjOJeyejrXUL7xqTUlyloZ2VFK6pqmKkTmKipxswqrjCqqKvlg0cAAAAAAAAAAAAAAAAAAAAAAAAAAAAAAAAAAAAAAAAAAAAAAAAAAAOG8w11RQujtdWykqcoqSvjR6InimFM9s9v1E/V+oIoL1DHWMSDv5lpmqkuWezhPDCcGoHPDQ00NZUVUULG1FRt72RE5ftTCZ+hDXj5eiWa8sOXh+TKXfj93Fcbmyx2aOe5yrNM1rY8Rt9qeXGMNb5qvgcWmLXUtqam8XhGpc6xEb3acpBEnSNF+9fefS/aahvNwpaySurqeWmaqRJA9qI1V6uwrV59/uPpbrDJR1kc7rzdalGZ/qp5WuY7KKnKI1PPJO8Zj2veoszvJ3naeP8AKCo6W/abpqmhoo6GW1tc+WGqnl2+jsVVcqObjLsc+P5dnZfBJBoqg71qtc/fIiL5K5cL9acnfddN091q3S11XXSU7sZo0m2wrjzREyvn1JdYGpSrBCvcM2bGLGiJsTGEwmMcE58kyx191Xj4bjnv6naKvaP+nNY1lzX2qO2otHTeKLIv+Mcn3N+gtpwWO1U9mtkVDSb1ijyu565c5VXKqq+K8neZ55S3t4bcWFxx/V5vkABRoAAAAAAAAAAAAAAAAAAAAAAAAAAAAAAAAAAAAAAAAAAAAAAAAAAAAAAAAAAAAAAAAAAAAAAAAAAAAAAAAAAAAAAAAAAAAAAAAAAAAAAAAAAAAAAAAAAAAAAAAAAAAAAAAAAAAAAAAAAAAAAAAAAAAAAAAAAAAAAAAAAAAAAAAAAAAAAAAAAAAAAAAAAAAAAAAAAAAAAAAAAAAAAAAAAAAAAAAAAAAAAAAAAAAAAAAAAAAAAAAAAAAAAAAAAAAAAAAAAAAAAAAAAAAAAAAAAAAAAAAAAAAAAAAAAAAAAAAAAAAAAAAAAAAAAAAAAAAAABC60vsOmdKXS81GFZRwOkRv8Aed0a363KifWBTaTtInn7V5NO+i062HvH0MVe1V3LWsjSR8arnGERVbjGdydfA0SrrqSjfTsq6qCB9RIkULZZEasj15Rrc9V4XhD+Zp7nU03ZVTUTNM6s/aekrEvS3Ga0OSL0vvN73udnlNqq3Kp0RODSta3env8AB2X3ejX/AAesvNPM3PVN0T1wvvRcp9QGnVFfSU1VTUtRVQRVNUrkgifIjXyq1Mu2ovLsJyuDiu+pLHZqhkF3vNuoJnt3NjqalkTnJ0yiOVOCmdoX+dbsy/29f/wEICq07W2nVWpbhU6WodaWu61TnyTxyxuq6RiNwsOyT4yN6IjXIvCe5EC+9omt7donTkt0qnwTzbUdBSekNjkqE3NRdmeuEcirhF4JiHUFnno6WrhutA+mq5Ugp5W1DFZNIufYY7OHO4XhOeFMY1tT6cq/6NVRU2BktRR0sbW0klc1HVFNmpYj48qmW4XLePBE6pgsHbVZbdJadD2ltHDFbp9SUsUkELe7arXNk3J7OMZyvTzA0aLUVlmtU1ziu9vfbYXbZKptSxYmLxwr84ReU8fFD62e82y9QPms9xo6+Fjtrn0szZWtXyVWquFM51/btM2ir0zZqLTjK+vlqJp7fZadWU9LLI1ib5Zspt9lqZRVRV9y8kNpRlbQ/wBILuamz0FkWqsCyS0tBP3kcqpMqJI7DGJu4x06J15AndN6rvtdpbXFW+5WqKstt8qaKjnueIqaGJixo1JFZhf7S89cqmcmh1VzpLba2Vt4raOlhRre8nklSOLK+TnL0Veh/P8AWf5mu13/AMS1X/EgL1rd1uqb3pOjSxS6iv0dK6opaGSdsdLEzDWuml3Iqcf2eF5TzwBpFputvvFL6Taa6lrqfcre9ppWyNynVMtVUzydhj2gYKu3dtV5p6i0UNlSrssdVLSUM/exPekytST4jUR2MphE9/ibCAAAAAAAAAAAAAAAAAAAAAAAAAAAAAAAAAAAAAAAAAAAAAAAAB8qyojo6SapndthhY6R64zhqJlTxb6yG4UUNXSuV8EzUexyoqZRfcpW9cQXp9uuL6OspY7elI/vInxKr3JtXdhfehy6AgviWq0yS1tI619yipCkSpJjauE3fTg1+OdHVtz3mvy9Guzvqb1c6+61NDp2mpnMpHbJ6uqcvdo/+41G8qqePkTVxq5aG2unSllq5mo1O6p0yrnKqJxnw5z9BQ9G2Bl2o7nPVV9dHJ6dMndwTLGkb8/GVE6u+n3Fn0FW1VbYcV0vfz080lOs37zauEd/DxL8mGOPj6Z8PJll/wB3/wCvDxpi+XC53i60dyoo6N1IkSpG1+93toq8uTheEToWUqlg/wCvuqf9Wl//AAUtZnySTLt+3/htwW3Hvd97/wCQAGbYAAAAAAAAAAAAAAAAAAAAACB1lpik1ZbqaguU1Qykiqo6l8cTkRJti5Rj8ovsquM4wvCck8ACoioqKmUUoK9l9qTR1Pp2OuuUcFHW+n0NQ2VqS0km5XJsXbjCK53VF6r7lS/ACiUXZ0xup7VqC7agvF1uduV/dLUOjbEiOYrVRGNYiJ1zlOVVEyvB+1HZ8sV1uVbYNRXeyMucyz1dPTLG+N8ip7T272KrHL4qi/7kL0AKg/s+sq9nkmjWekMtcke10m9Flc7fvV6uVMK5Xc9Me7HB+z6KbXWyw0t4u9fXz2e4R3GOpejGvlfHu2tfhuFbh2OOVx1LcAKtrPRlNqaqtlc2trLbdrY9z6StpHIj2bkw5qo5FRzVTGUVPuVc8Ng7PKa1atbqWe83a43dad1NJJVyMVr2qqLhGo1EaiY4RuE69S7gCkS9m9rk0xqSxLVVvot9rpLhUPRzN7Hvcxyoz2cY9hOqKvXk6NTaGp7xXWu40dyr7Vd7dEsMNZSK3c6NU5Y9rkVHJ44x1LeAKZpjs/pLDqmfUCXS6V1zqKVaWokq5WvSXL0cjsI1NqphGojcIiJ0zyXMAAAAAAAAAAAAAAAAAAAAAAAAAAAAAAAAAAAAAAAAAAAAAAAAAD51UEdVTS087d8MrFY9ucZaqYVDzRUsNFSRU1KxI4Imo1jEVVwnlyfYDf0jU3tXKvS7XVtVUW641lu9LXNRHTq3a9fFyZRdrl80JazWyms9tgoaJqtgiTCZXKqvVVVfNVO0F7nlZqqY8WON6pEdRWmGkvNwuLHyLNWpGj2rja3YmEwSIBW23yvjjMe0AAQkAAAAAAAAAAAAAAAAAAAAAAAAAAAAAAAAAAAAAAAAAAAAAAAAAAAAAAAAAAAAAAAAAAAAAAAAAAAAAAAAAAAAAAAAAAAAAAAAAAAAAAAAAAAAAAAAAAAAAAAAAAAAAAAAAAAAAAAAAAAAAAAAAAAAAAAAAAAAAAAAAAAAAAAAAAAAAAAAAAAAAAAAAAAAAAAAAAAAAAAAAAAAAAAAAAAAAAAAAAAAAAZtS9o8s/azLpr0SFbLl1HFXtVVV1YyNJHxqucJhqqmMZ3J18tEnqYKd0TZ5oonSv7uNHvRqvd5JnqvuA+oPlLVU8M8MMs8Uc0yqkTHPRHSYTK7U8cJ5HLcLza7bKyK43KipJZEyxk87Y1d9CKvIHeCs6/1hQ6M01UXasVkyxta6OmbK1r5sua1dueuNyKTUd1t8tPBPHXUroZ391FIkzVbI/8AutXOFXheE8gOwFcu96nlba5dOXCxywSV7KeqfU1GUdHzuZErV5l6YRSXuV0t9rYx9zrqWjY9cNdUTNjRy+7cqZA7AeIJoqiFk1PIyWJ6bmvY5HNcnmip1PYAAAAAAAAAAAAAAAAAAAAAAAAAAAAAAAAAAAAAAAAAAAAAAAAAAAAfKqqIqSlmqKh2yGFiyPdhVw1Eyq8e480NXDXUcVVSv3wStR7HYVMovuUnV1tG5vT7gr2tdQ/s/a1kgjSatkz3MS5wqNTLnLjwROT8kv8APFpKiujaRaisqY4lZBFlEc96JxnnCcryvkWnHlZL7Z3mwmVx+53WIFQdeL/aKuhW/wANtfR1c7adHUivR0T3Zxnd1T6C3kZYXFbDkme9AAKrgAAAAAAAAAAAAAAAAAAAAAQ+sL5DprS9zvNTzHRwOl2/3nY9lv1rhPrJgr2uNLw6utlNbq2plho2VcVTNHGn+Paxc927/RVcL9SAYHPXrSdk1LG20agXVdJWpfXVktolbGtV3m97nOxhU2Krc9Fwi8Gka4u1PfY+zC60S5p6y808zM+COieuF96dPqNVciORUciKi8KimeJ2XUbdF02no7rXRtoK5a+3VTMJJSP3K5qJ4ORNzuvmB8e0L/Ot2Zf7ev8A+AhX7hpuqtOqNTV960hFrG23So7xtXC6OSppYtuO5SJ/Ps9E2Ki9Pdi1UfZ5VO1VZtQXzU9xutfbHSd22SKOKLa9itVEYxERq85VeVXCeR6qNAVdLdbpV6Y1PcLJDc5nVNXTMhjnY6V3xpGb0VWOXxx/yTAUHW9Fp2p/o2TVNkdJcaWjja2iqa9jXVFOi1LEczOEVuPi4TwROqFg7Z7HbVtGh7RDRw01tn1JSxPgpm9y3a9sm7G3GM5XlOeS0SdndoXs4m0bHJUtt8rFR06uR0rnq/f3irjCru56Y8D9qtFz3K16ep71fKiuqrPcori2qdCxjplj3bWORvCJh3XrwBU+1SzW2xR9ntHZqGmoaVNVUTu6p40Y1V5RVVE6rwnJ+3plruHabeUt2m5dWXmmghjqm180TKSgY5qq1ke9q+07ly4RfHlOUL3rHS0Op5LE+epkgW1XKG5MRjUXvHR5w1c+C5Ia7aAmfqmvvuntRV9jqrkxjK5kMUcrJ9iYa5Eei7XInGU/5rkIH+j26aOi1fRSQJRw0l9qI4qNsm9lKnCrG1em1Fz0wnVfE1kqegNFU+i2XVlLX1da24VPpT3VbkdIj1REcqu/tKuM5LYAAAAAAAAAAAAAAAAAAAAAAAAAAAAAAAAAAAAAAAAAAAAAAAAAAAFV1u29rbLktFJb2270STvGysesiptXdhUXHTocehlvUNjtk1TLb/VDKfcqNY/vkajVxznGc48C41dPFV0s1PUN3wzMWN7cqmWqmFTKe480NJBQUcNLSs7uCFqMY3KrhE968ms5f0dOnPeD/qde2V1WorZcKW/XCvne2vqKeSmo6dYXr3MWFxztxucvKrn6y56IvVul0tbWJVMY6KOKmd3mWf1u1PZTdjK/RknrtRNuNrq6J71Y2oidErkTlEVMZI+fTtLUacp7RUPkdHBGxscrV2va5icPRfBS+XJhnjrx3Z4cPJx59Usvb/lWNQU9ytt1tNdfa9tztraxrWwNiSLunuztfhPjY95oJWo9MTT1VLJeLvU3CKlekkMLo2sbuTo521PaVPeWUpyZSyRrw4XG5WzWwAGTcAAAAAAAAAAAAAAAAAAAAAAAAAAAAAAAAAAAAAAAAAAAAAAAAAAAAAAAAAAAAAAAAAAAAAAAAAAAAAAAAAAAAAAAAAAAAAAAAAAAAAAAAAAAAAAAAAAAAAAAAAAAAAAAAAAAAAAAAAAAAAAAAAAAAAAAAAAAAAAAAAAAAAAAAAAAAAAAAAAAAAAAAAAAAAAAAAAAAAAAAAAAAAAAAAAAAAAAAAAAAAAAAAAAAAAAAAAAAAAAAAAAAAAAAAAAAAAAAAAAAAAAAAAAAAAAAAAAAAAAAAAAAAAAAAAAAAAAAAAAAAAAAAAAAAAAAAAAAAACJ1be4NOaZud4quYqOB0u3+8qJw36VXCfWBUKXtHWftYl0t6Iz1WiOpo65rs7qtjEkfGvgmGqqY65T+F/qKqnptvpE8UW7p3j0bn6Mn81TXGkpOyWlkZHcX6wpa5NQPmktVQ1jqrvN79ztm3GxVbnOF2p4Gz32o0hftF0uqNR0VDV2qKl9Ljkq4WyLG16NVURF/tKqNTHVVREAtkFbSzv2QVMEj8Z2skRV+4TV1JBUR089VBHPJ8SN8iI530IvKmWdkukIqWev1vUWimtdTXxKlBboI0jSlpcZbuRE5kfhFVfDpxyiUrRFqk1ZoWa5XjQlRqC53lZpJbytVSo/crnMTu98iOjRiIiIiIiJt6YA/oySeKJzWyysY52dqOciKuOuCm3zVU0Gv8AR1tt9RTSWq6x1rqh7cPz3MaK3a5F4wucmY32x19zrux6za5hkWtclbDWRrMjnPRrGYRz2KudzWtzzzlclh1zpWyydo3ZtYUoIorOjLi70SJNka4Yx+FROqK7lU6LznqBrlHWU1bGslHUw1DEXCuiej0RfLKHmqr6OkfGyrq6eB8i4Y2WRGq5fdleTK621UOju2rSEemqaG3U18p6uCupqdiMjkSKPex21OEdleqeGfNSPdb7Her3qae2aNrNYzOrXwVdwrpqdjYntREWGBXqio1nRFRPrXhQNU1dVXWksU0+n2UElwRzNiV0ish2q5N2VT3Zx7/PoPSrt+1zaXu6D1L6F3iv7xfSO/34xt6bNvj5mAVtVPV/0QIX1U0kz2PbE1z3ZVGNq9rW58kRERPJERDS5P8AtJRf+Ff/APqUDRKi4UdNPHBUVdPFNJ8SN8jWud9CKuVPtLLHFt72RjNzka3cqJlV8E95hTrXZL3S6hqLToqu1VHU1M7Zr1cJ6eN7nomFSFz1R2xmNqK1ET2cJnBE3WSW+di3ZW24TzPfPfaSnfK16tftRZmIqOTlFRqJz1A/oaCupKieWGnqoJZov8YxkiOcz6UTodBj+rtMWbSut+z6r05bqe2TSXB1HKtMxGd7G6Nco/HxunVfM2AAAAAAAAAAAAAAAAAAAAAAAAAAAAAAAAAAAAAAAAAAAAByU9xpaivqqKGVHVVLtWZmF9jcmU56cp5H5dvWHobvVC0qVeUx6SjlZjx+LyZ/Zk1N+2WofR3Wf07EHpCvbJ3fxPZ2YXPTrk14+OZS3fhhy81wyxkm9/8AtbL/AHmshudNabNTwzXGaNZldO5UjijRcbnY5XK8cH5p+9Vc9yqbTeYIYLlAxJUWFyrHLGq43NzymF45OS50V4pb7b71SU0VbP6L6JWQRvRnGd25iu8N3nz/AMuCzy11b2lTzV1K2mWO27O6a9HqxFkyiOVONy8rhPAvMMbj/T+u2V5M5n335/pp0tv9+uTaitsVBRyWyB7mN797kkqNq4VWY4ROqJny+osdhukN5tFNcKZFSOZudq9WqnCp9SoqFYtEd905Q1FsgtkdVSxSPdTVS1DWMaxyq720X2uMrnCfzIey3p2m+y6jmX2Kmpe9kCvRcNVz3e0vC8ImV6c8eZbLjmU/T77K4c1wv67fFt/9LDVascmtKOy0kLXwPc5k07s8PRu7a3wynGfpLaZAl709Q3XTC0dcssFG6d9VOsT0Vz3tT2lymVVVz0ya5DIyaJksa5Y9qOavmilObCY61NNP4blufVu77/2ewAYOoAAAAAAAAAAAAAAAAAAAAACta90smr7VS22esdT0TauKoqY2s3ekRsXd3SrlMIq4XPPToWUAfj2texWvRHNcmFRUyioZJcOx+sn0xabDSarlp7fba2WrhjfQtlRUVyOjY5HOw7Yu/rwu7pwhrgApumtOart12jqL1raS70TWuR1I61wwI5VThdzeUwvJEx9nN0tElTT6Q1dVWSy1EjpXUCUcc6Qq5cuSF7uWIvgmFx1NIAFNrNCxz3nR1c251Lk04kyNSozNJU94xG5e9VTCpjPRevgfmudDv1PfbHdYLzVWuptLZ+5fTMRXK+RGoi5XjCbeWqio5FVOC5gCj6Y0NVUWpV1Dqa/TX+7xwrT00j6ZkEdOxfjbWNym5eiu8lwR6dm9worpcf2f1dX2myXGodVVVBDTxvf3j/jrHM7mPOE6IuDSABmT+ymNeyeTQzbu5IFmWSOqWny5re+7zard3K9UzlPoOW23Gju/9IyomtdRHVxUenVpah8S7mxypVKqsVU6OwvQ1c+FLRUtI6V1JTQQLM7fIsUaN3u81x1X3qBnMHZjcKJau32rWFyodL1Mj5HWyKCNXs35VzWTr7TWqqrwifeuT60/Zh3WjdKWB94c9LBc47i2f0bCzbHvcjFbu9n4+M5Xp0NIAFd1TplL/dNPVi1SweqK30xGJHu732VbtzlMdevJYgAAAAAAAAAAAAAAAAAAAAAAAAAAAAAAAAAAAAAAAAAAAAHJT22kprjV10MW2qq9qTP3Ku7amG8ZwnHkdYJ3YiyXy4LzSVdbSJFQV7qCXeirKyNHqrecphenhz7j5WKy09nZOsT5p6iodvmqJnbnyL4ZXyTwQlAT1XWleiXLq+0BeLBUXarlSqu1U22PREWjha1iLxyiv6qi+RN08EVNTxwQRtZDG1GMYicNREwiH0AuVs0TDGW2eaiLpZUr73abh33d+gLIvd7M796InXPGMEuARbb2qZjJbZ9gAIWAAAAAAAAAAAAAAAAAAAAAAAAAAAAAAAAAAAAAAAAAAAAAAAAAAAAAAAAAAAAAAAAAAAAAAAAAAAAAAAAAAAAAAAAAAAAAAAAAAAAAAAAAAAAAAAAAAAAAAAAAF6HjY79477v5Aewedjv3jvu/kNjv3jvu/kB6B52O/eO+7+Q2O/eO+7+QHoHnY79477v5DY79477v5Aegedjv3jvu/kNjv3jvu/kB6B52O/eO+7+Q2O/eO+7+QHoHnY79477v5DY79477v5Aegedjv3jvu/kNjv3jvu/kB6B52O/eO+7+Q2O/eO+7+QHoHnY79477v5DY79477v5Aegedjv3jvu/kNjv3jvu/kB6B52O/eO+7+Q2O/eO+7+QHoHnY79477v5DY79477v5Aegedjv3jvu/kNjv3jvu/kB6B52O/eO+7+Q2O/eO+7+QHoHnY79477v5DY79477v5Aegedjv3jvu/kNjv3jvu/kB6B52O/eO+7+Q2O/eO+7+QHoHnY79477v5DY79477v5Aegedjv3jvu/kNjv3jvu/kB6B52O/eO+7+Q2O/eO+7+QHoHnY79477v5DY79477v5Aegedjv3jvu/kNjv3jvu/kB6B52O/eO+7+Q2O/eO+7+QHoHnY79477v5DY79477v5Aegedjv3jvu/kNjv3jvu/kB6B52O/eO+7+Q2O/eO+7+QHoHnY79477v5DY79477v5Aegedjv3jvu/kfrUVOrld9OAP0AAAAAAAAAAAAAAAAAAAAAAAAAAAAAAAAAAAAAAAAAAAAAAAAAAAAAAAAAAAAAAAAAAAAAAAAAAAAAAAAAAAAAAAAAAAAAAAAAAAAAAAAAAADzNIyGJ8srkbGxquc5eiInVQPQIT9q7F8qU3/qJCguVFcWudQ1cFQjfjd29Hbfp8gOsAAAAAAAAAAAAAAAAAAAAAAAAAAAAAAAAAAAAAAAAAAAAAAAAAAAAAAAAAAAAAAAAAAAAAAAAAAAAAAAAAAAAAAAAAAAAAODUH+Qbl/9tJ/+KnecGoP8g3L/AO2k/wDxUDPuzOw2y62mqluFIyeRk+1rnKqYTai44U+PolNae0uhp7A5e6crUlYx6uRuc72/RhM8nw0DpSgv9tqJ62SpY+OXu0SJ6ImNqL4ovmdL6b9iNZ0UVDIs1JWIxr2yNar0RXbVTOPPnjGengShqgAISAAAAABWO0zUFTpXQ12vdDFDLU0kbXsZMiqxVV7W84VF8fMs5QO3z/NDqT/Ys/4rAIu56j7RbDp+W/3O3aYr7bTxJUTQUMs8c/d8K5UV6K3hOfq4yaHS3ihnsVNeFqI4bfPAyobNM5GNRj0RUVVXhOqGNav0hrT4PaqquOuW3S2U1GlVNbX21lM2eJjUesTpI3I/ComOOpK6nulhvtl0C51nq7hU1zPSLbYI5GMgkVsSKvfK5Nu2NOn+5UzgNUtl0t91hdLa66lrYmrtc+mmbIiL5KrVUpuiNZxz0d8l1NdaGm7i91lDTLPIyFFjjciNamcZVEXr1KfpZtVQdvsUL7FSaebV2Nz5aSjnbJHMrZV2yO2tam7jHTw68nd2W6RsN4TWdXd7VSV1RNf66BXVMaSbY0f8Vufi8qq5TC/wQDXe+i7jv+8Z3O3f3m5Nu3Gc56Yx4nFbL3arq+RlrudDWvjTL201QyRW/TtVcGI6dqLY7+j9Z6XUHrGppn3F1HT0dG9Ekq3+kP7uBVX+yuOeU4b9R9bpDWW3tF0BVfsjQaYfLVvpldR1MciyxuZzG9rGNTCfSvuA2msvlpou/wDTbpQ0/cOayXvahjO7c5MtR2V4VU5RF6nmov1npqGGsqLrb4qOb/FTyVLGxyf6rlXC/UZrpfT1ovPbF2iz3e3Utc+nfRMiSpjSRrEdT+1hrspldqc4z/FTl7K9Faelvut2VNrpqqCluslJTQVMaSx08e1Hq2Nrso3Ku5x5J5AbHTzRVEEc1PIyWGRqOZIxyOa5F6Kip1Q4KG/We4VbqWgutBVVLUVXQw1LHvTHXLUXJjOmai02zsk17RXqprqTT9uvlXQxtonf1rId8eImKufjOeqc+DlyqdSO1rS1Nrg0ZV0+iaPTKQ3mljhqoaqN1RtXKLG9GNT4yJlcuXpznIG+3O62+1RNlulfSUUTl2tfUzNjRV8kVyofekqYKymZUUc8U8EiZZJE9HNcnmipwpmGu9P3B/aDDqGnsVDqqiht6UjrbNOxslM9Xq5ZWNemxctXHPJJ9kS2BIr7Hp2C4W56Vu6rtNY1GehSqnKManDWr1TCqnHGOgGggAAAAAAAAAAAAAAAAAAAAAAAAAAAAAAAAAAAAAAAAAActwuFLb/RvS5e79ImbTxeyq7nuzhOOnReVOoznWcWokls/pVRbXMW6RJToyN6K1/tbVdzynng04sJnlq1jz8t48dybX64VPodFLUJDNOsbc91C3c93uRPMrtk1Fca7VMtsrra2hjbSrUNa6RHyKm9Goq44TqvBMWRl2YyX11NRyvVU7v0ZjmoieOckFF/nWm/7pT/AIqFsZNZS91c8st45Tt38O2+Xe4NvMFnskNO+tfCtRJLUqvdxx5wnCcqqrweLFebgt+nst7hp0rGQJUxy02e7ezOOi8ouf8An9cvebnS2egkrK1+2NnCIiZc9fBqJ4qpD6doZ21FZqC9M7qtqGYbEnPo8Ccoz3r4r7xNdHef/UZdU5Jq/wCNPrrXUK6ftfeU8bZq2TPcxKiqio1MucuPBE5PnU6kkptI2+5ugbLW1jImxQMXaj5XomEyvROq/UUuqv1ur6O/XC4SytuFTTyU1JAsD1SGLC4TO3CK5eVXJddB3Glq9K0KQyKvosEccquYrUa5GJnlUTP0pwaZccwwls+2WHNeXksmWtzs457zf7NU0T77FbZKKqnbTq6k3o6Jzuiru6oXAp8CyatvMFUibbBQS74VVOaqZONyf6DfDzX7rgZcmprt3b8Nt3d7n0AAybgAAAAAAABzXSB1VbKunjVqPmhfG1XdEVWqiZOkAZxZtLats0D4bbc7dDG929ycuyuMeMa+RIWnR1dJfI7tqOvbV1ESo5jI09nKdPBMIi84ROpdwEaAAEgAAAAAQmtNPQ6r0vX2SqmkghrGIx0kaIrm4cjuM8eBNgDO6rs3rLlRNt951nfay14RslKxIYElYn9hzmMRytVOFTJJ6n0FQ3aOxyW2qqLNX2PLbfU0iIvcsVqNVisdlrmqiImF8vJVRbiAKJY+zxLfrGHU9bfrnc7skD6eV1TsRjmr0RrWoiMROuE8VVfEn9J6cg03Dc46eeSZK6vnuD1kRPZdKuVamPBCcAFATswti6Ep9MrW1qNpata6mrI3IyaGbe56OTHHG5U+j38nzXs2mq77Z7zfNUXW53C2TtlhWRkccSNTq1I2NREVeMu6rhDQwBA2XTUFp1LqC9RTyvmvLoHSxuRNsfdM2Jt+lPM9ab05BYa291ME8srrrWurZEeiYY5Wo3CY8PZJwAUb4NLTLpnUljrJqmekvlfLcZXZRr4pHq1U2Kn91WIqZz78oRtd2XVF3Zb0v2r71cFt00c1I17YmMYrFRUVzWt9t3GNzlzyvmaWAKff9ErWaiW/2O81lju74Ugnlp445GVDE+L3kb0VFVOiO6oh26N0pBpptwmWsqrhcrjN39ZW1KpvlciYRMNREa1E4RETgsYAAAAAAAAAAAAAAAAAAAAAAAAAAAAAAAAAAAAAAAAAAAAclfb6W4ejelxd56PM2oi9pU2vbnC8Lz1XheDrAl14RZL2oRbbPE3Ujrz3r++dTejd3hNuN27P0koCZbPBcZl5QF/04t3uVJWJcJ6Z9KmY2NY17Ud/ew5FTPv9x97farhTVcctRfKqqibnML4o2o7hU6o1F9/1EwC3yZa0p8OHV1fblutEy42yqo5HKxlRE6JXN6oipjKEZW6dZU6YisjKyeGFkbIlkZjc5rUxhfpxyToImdnhOXHjl5n7K3Bp6408LIoNQ1ccTGo1rG08KI1E8ETaWQAZZXLyYceOH/aAAquAAAAAAAAAAAAAAAAAAAAAAAAAAAAAAAAAAAAAAAAAAAAAAAAAAAAAAAAAAAAAAAAAAAAAAAAAAAAAAAAAAAAAAAAAAAAAAAAAAAAAAAAAAAAAAAAAAAAAAAAAAAAAAAAAAAAAAAAAAAAAAAAAAAAAAAAAAAAAAAAAAAAAAAAAAAAAAAAAAAAAAAAAAAAAAAAAAAAAAAAAAAAAAAAAAAAAAAAAAAAVntL1DUaV0Ndr3RRQzVFJG17GTZ2Ll7W84VF8fMCzAyqs1V2h2GySX292PT1daoYknmjt1VKyZseMq5N6Ki4TlU9xpFFc6Srs9NdI5mtop4WVDJJF2psc1FRVz04VAO0HPQ11JXxLLQ1UFTEi43wyI9M/ShT9C6tWvo75Nf62kg9GvVXQQK9zYkWONyI1OV5UC8A+UtRDExj5Zo2MeqNa5zkRHKvRE88nziuFFLFNLFV074oXK2V7ZWqkap1Ry54X6QOkHNQ19HcI1koKqnqY0XCuhkR6IvllFI2yV1wd63kvjrbFBBWPZTPppVXECIm3vc9H5Vcp9H0qE2DlS5UK1jaRK2m9Kcm5Ie9bvVPPbnJ1AAAAAAAAAAAAAAAAAAAAAAAAAAAAAAAAAAAAAAAAAAAAAAAAAADkp7jS1FwqqKGVHVVLtWZmF9ncmU56Lx5DSLZPLrBXtQXmthudPabJTwy3GaNZlfUKqRxRouNzscrleODzYb1XTXCqtN4gp4brBGkzVhVVimYq43JnlMLhFyX+O62z+bHq6VjBU5JtZxsc98enmtamVVXy8IfO3aorl0g27VtEySpnl7umgp0c3vMrhvXOM8rnyLfFdbiPnxl1ZYuAKh66v1qq6L9oaa3LR1kzadr6Rz90T3dNyO6p9BbymWFxXw5JnvX0AAquAAAAAAAAAAAAAAAAAAAAABQO3z/NDqT/AGLP+Kwv5A6606zVmk7jY5Kl1KysYjFmazcrcOR3TKZ6AZbrHS+tfg7qqiu1lFcrXBSJU1Fu9XNpe/hY1Hui71jlcmWpjjr0XqSOqLhp2+2PQPeW24Vq1rUnt2nqd0bYp9saL/XbuNkae9E56KmcScnZxfLhQrbb9ry6VlocxI5aWCkhplkZ02q9qKuFThU8UJfVHZ/TXOGxSWSumsdxsSKy3VNOxJEiYrUa5isdw5FaiJz/ADyFD0e2a29vMdNFp6LTMNZZHPloYJY3xzK2VdsipH7KL1Tz6+Z3dmOjNP3xNZ1d6tdNcJ5b/XQItS3f3bEf0Zn4i5VVymF6c8Jix2Hs8qaDWlLqi5akrbrc2Uz6Wbv4WMY9qrlEY1uEjROuOcqqr4lh0dptmmoLrGypdUen3Ge4Kqs27Fldnb1XOPMDBahrq/sA0dSVMsro01AylRyPVHJGk0rURF8MJwnlhDRNdaf0nY7fYLLBZ6mVs9cklNZLcjGsuErGpzPu4c1qIiqrl8OcndH2XQs0VaNPetJFZb7mlySfuUy9Ukc/ZjPHxsZz4E9rrSCan9W1NLcai1Xe2SrNR1sDUesauTDkVq8OaqcKn/LKKGb2Bk1p7b7JHBpiHTEVwt1RHPTwTRPZUIz2mu2x+yiovj1OSv8A81vbF/39Wf7oS82rs6rINZ2nU911RW3S5UbJYpElgYyORj2q1GsY3CRomc8Zyp0z9nsUumNXWf1i9G6hrpq10vdJmBZNnsomfaxs68dQM87StKWWwdiFPerVQQwXukbR1cdxan+ErM6Rm57pPjOVVcq8rjphOEN7jVXRtVeqoilU1jouPUvZ87Sz619PG6KGP0hI0cv9W5q525Trt8/EtjE2tRvkmAP0AAAAAAAAAAAAAAAAAAAAAAAAAAAAAAAAAAAAAAAAAAAAAAAHHdkuC0bvVK0qVWUx6SjlZjx+LyUCzJqX9stQ+jvtHpuIPSFe2Tu/iezswuenXJpZx01tpKa41ddDFtqqrakz9yru2phvGcJx5GvHydEs15YcvDeTLGy+P8VX7pQ3emvlvvVHTRVtQlL6JV08b0jRUzu3MV3hu8/A4LNLXVnaVPPXUraZY7bs7pr0esaLJlEc5ONy8rx4FtvFJVVtIkVFXyUMm5FWVjEeqt5456fT7j42Ky09njm7p8s1RO7fNUTO3SSL4ZX3eRack6e/nwpeG9c143v/AH7Reu6iSalpbLSOVtVdZO5yiZ2xJzI7+HH1k8z0S2UtNBvip4G7YImvciIq4wjUz1Xg447K39pZbxNMssncpBDHtwkTeq8+Kqvifa+2mnvVvdSVKvam5HskjXDo3p0c1fBSluOpj9NJjlLlnrv9KfqCC5UF1tNbfq2O4WxtY1rIY4+6WORc7HqiZ3Y+k0ArEemKqoqqWS93ma4w0r0lihWFsbd6dHOx8bBZyeTKWST6V4cLjcrZrYADJ0AAAAAD/9k=;clipPath=inset(3.33% 0.36% 12.33% 0%);" parent="1" vertex="1">
          <mxGeometry x="74" y="684" width="212" height="347.07" as="geometry" />
        </mxCell>
        <mxCell id="ZivklVcL2sIQt0F_CLgx-91" value="" style="endArrow=classic;html=1;rounded=0;fontSize=8;fontColor=#CCCCCC;exitX=0.505;exitY=0.999;exitDx=0;exitDy=0;exitPerimeter=0;" parent="1" source="ZivklVcL2sIQt0F_CLgx-1" edge="1">
          <mxGeometry width="50" height="50" relative="1" as="geometry">
            <mxPoint x="325" y="608" as="sourcePoint" />
            <mxPoint x="181" y="639" as="targetPoint" />
          </mxGeometry>
        </mxCell>
        <mxCell id="8JSm_sYvDJ9vIiFW1zC--47" value="" style="verticalLabelPosition=bottom;verticalAlign=top;html=1;shadow=0;dashed=0;strokeWidth=1;shape=mxgraph.android.phone2;strokeColor=#c0c0c0;" vertex="1" parent="1">
          <mxGeometry x="573" y="635" width="233" height="459" as="geometry" />
        </mxCell>
        <mxCell id="8JSm_sYvDJ9vIiFW1zC--48" value="" style="verticalLabelPosition=bottom;verticalAlign=top;html=1;shadow=0;dashed=0;strokeWidth=2;shape=mxgraph.android.navigation_bar_1;fillColor=#1A1A1A;strokeColor=#999999;sketch=0;" vertex="1" parent="1">
          <mxGeometry x="581.5" y="1024" width="216" height="30" as="geometry" />
        </mxCell>
        <mxCell id="8JSm_sYvDJ9vIiFW1zC--49" value="" style="shape=image;verticalLabelPosition=bottom;labelBackgroundColor=default;verticalAlign=top;imageAspect=0;image=https://previews.123rf.com/images/doozydo/doozydo1810/doozydo181002399/110961309-beautiful-falling-snow-christmas-background-subtle-flying-snow-flakes-and-stars-on-light-grey-backgr.jpg;" vertex="1" parent="1">
          <mxGeometry x="581.5" y="676" width="215.5" height="349" as="geometry" />
        </mxCell>
        <mxCell id="8JSm_sYvDJ9vIiFW1zC--50" value="" style="shape=image;html=1;verticalAlign=top;verticalLabelPosition=bottom;labelBackgroundColor=#ffffff;imageAspect=0;aspect=fixed;image=https://cdn4.iconfinder.com/data/icons/essential-app-2/16/burger-menu-more-panel-128.png" vertex="1" parent="1">
          <mxGeometry x="593" y="691" width="16" height="16" as="geometry" />
        </mxCell>
        <mxCell id="8JSm_sYvDJ9vIiFW1zC--51" value="" style="shape=image;html=1;verticalAlign=top;verticalLabelPosition=bottom;labelBackgroundColor=#ffffff;imageAspect=0;aspect=fixed;image=https://cdn4.iconfinder.com/data/icons/48-bubbles/48/43.Bell-128.png" vertex="1" parent="1">
          <mxGeometry x="765" y="687" width="24" height="24" as="geometry" />
        </mxCell>
        <mxCell id="8JSm_sYvDJ9vIiFW1zC--52" value="" style="ellipse;whiteSpace=wrap;html=1;aspect=fixed;" vertex="1" parent="1">
          <mxGeometry x="609" y="978" width="32" height="32" as="geometry" />
        </mxCell>
        <mxCell id="8JSm_sYvDJ9vIiFW1zC--53" value="" style="ellipse;whiteSpace=wrap;html=1;aspect=fixed;" vertex="1" parent="1">
          <mxGeometry x="733" y="978" width="32" height="32" as="geometry" />
        </mxCell>
        <mxCell id="8JSm_sYvDJ9vIiFW1zC--54" value="" style="ellipse;whiteSpace=wrap;html=1;aspect=fixed;" vertex="1" parent="1">
          <mxGeometry x="669.75" y="971" width="39" height="39" as="geometry" />
        </mxCell>
        <mxCell id="8JSm_sYvDJ9vIiFW1zC--55" value="" style="shape=image;html=1;verticalAlign=top;verticalLabelPosition=bottom;labelBackgroundColor=#ffffff;imageAspect=0;aspect=fixed;image=https://cdn2.iconfinder.com/data/icons/crystalproject/Open-Office-Icons/stock_insert_special_character.png" vertex="1" parent="1">
          <mxGeometry x="618" y="987" width="14" height="14" as="geometry" />
        </mxCell>
        <mxCell id="8JSm_sYvDJ9vIiFW1zC--57" value="" style="dashed=0;aspect=fixed;verticalLabelPosition=bottom;verticalAlign=top;align=center;shape=mxgraph.gmdl.calendar;strokeColor=none;fillColor=#737373;shadow=0;sketch=0;" vertex="1" parent="1">
          <mxGeometry x="743" y="988" width="13" height="13" as="geometry" />
        </mxCell>
        <mxCell id="8JSm_sYvDJ9vIiFW1zC--58" value="" style="shape=image;html=1;verticalAlign=top;verticalLabelPosition=bottom;labelBackgroundColor=#ffffff;imageAspect=0;aspect=fixed;image=https://cdn4.iconfinder.com/data/icons/social-media-and-logos-12/32/Logo_telegram_Airplane_Air_plane_paper_airplane-33-128.png" vertex="1" parent="1">
          <mxGeometry x="675" y="978" width="26" height="26" as="geometry" />
        </mxCell>
        <mxCell id="8JSm_sYvDJ9vIiFW1zC--59" value="" style="ellipse;whiteSpace=wrap;html=1;aspect=fixed;" vertex="1" parent="1">
          <mxGeometry x="696" y="966" width="16" height="16" as="geometry" />
        </mxCell>
        <mxCell id="8JSm_sYvDJ9vIiFW1zC--60" value="4" style="text;html=1;strokeColor=none;fillColor=none;align=center;verticalAlign=middle;whiteSpace=wrap;rounded=0;" vertex="1" parent="1">
          <mxGeometry x="696" y="970" width="16" height="8" as="geometry" />
        </mxCell>
        <mxCell id="8JSm_sYvDJ9vIiFW1zC--61" value="" style="rounded=0;whiteSpace=wrap;html=1;fillColor=#030303;opacity=60;" vertex="1" parent="1">
          <mxGeometry x="581.5" y="676" width="214.5" height="350" as="geometry" />
        </mxCell>
        <mxCell id="8JSm_sYvDJ9vIiFW1zC--62" value="" style="verticalLabelPosition=bottom;verticalAlign=top;html=1;shadow=0;dashed=0;strokeWidth=1;shape=mxgraph.android.phone2;strokeColor=#c0c0c0;" vertex="1" parent="1">
          <mxGeometry x="910" y="631" width="233" height="459" as="geometry" />
        </mxCell>
        <mxCell id="8JSm_sYvDJ9vIiFW1zC--63" value="" style="verticalLabelPosition=bottom;verticalAlign=top;html=1;shadow=0;dashed=0;strokeWidth=2;shape=mxgraph.android.navigation_bar_1;fillColor=#1A1A1A;strokeColor=#999999;sketch=0;" vertex="1" parent="1">
          <mxGeometry x="918.5" y="1020" width="216" height="30" as="geometry" />
        </mxCell>
        <mxCell id="8JSm_sYvDJ9vIiFW1zC--64" value="" style="shape=image;verticalLabelPosition=bottom;labelBackgroundColor=default;verticalAlign=top;imageAspect=0;image=https://previews.123rf.com/images/doozydo/doozydo1810/doozydo181002399/110961309-beautiful-falling-snow-christmas-background-subtle-flying-snow-flakes-and-stars-on-light-grey-backgr.jpg;" vertex="1" parent="1">
          <mxGeometry x="918.5" y="672" width="215.5" height="349" as="geometry" />
        </mxCell>
        <mxCell id="8JSm_sYvDJ9vIiFW1zC--65" value="" style="shape=image;html=1;verticalAlign=top;verticalLabelPosition=bottom;labelBackgroundColor=#ffffff;imageAspect=0;aspect=fixed;image=https://cdn4.iconfinder.com/data/icons/essential-app-2/16/burger-menu-more-panel-128.png" vertex="1" parent="1">
          <mxGeometry x="930" y="687" width="16" height="16" as="geometry" />
        </mxCell>
        <mxCell id="8JSm_sYvDJ9vIiFW1zC--66" value="" style="shape=image;html=1;verticalAlign=top;verticalLabelPosition=bottom;labelBackgroundColor=#ffffff;imageAspect=0;aspect=fixed;image=https://cdn4.iconfinder.com/data/icons/48-bubbles/48/43.Bell-128.png" vertex="1" parent="1">
          <mxGeometry x="1102" y="683" width="24" height="24" as="geometry" />
        </mxCell>
        <mxCell id="8JSm_sYvDJ9vIiFW1zC--67" value="" style="ellipse;whiteSpace=wrap;html=1;aspect=fixed;" vertex="1" parent="1">
          <mxGeometry x="946" y="974" width="32" height="32" as="geometry" />
        </mxCell>
        <mxCell id="8JSm_sYvDJ9vIiFW1zC--68" value="" style="ellipse;whiteSpace=wrap;html=1;aspect=fixed;" vertex="1" parent="1">
          <mxGeometry x="1070" y="974" width="32" height="32" as="geometry" />
        </mxCell>
        <mxCell id="8JSm_sYvDJ9vIiFW1zC--69" value="" style="ellipse;whiteSpace=wrap;html=1;aspect=fixed;" vertex="1" parent="1">
          <mxGeometry x="1006.75" y="967" width="39" height="39" as="geometry" />
        </mxCell>
        <mxCell id="8JSm_sYvDJ9vIiFW1zC--70" value="" style="shape=image;html=1;verticalAlign=top;verticalLabelPosition=bottom;labelBackgroundColor=#ffffff;imageAspect=0;aspect=fixed;image=https://cdn2.iconfinder.com/data/icons/crystalproject/Open-Office-Icons/stock_insert_special_character.png" vertex="1" parent="1">
          <mxGeometry x="955" y="983" width="14" height="14" as="geometry" />
        </mxCell>
        <mxCell id="8JSm_sYvDJ9vIiFW1zC--71" value="" style="dashed=0;aspect=fixed;verticalLabelPosition=bottom;verticalAlign=top;align=center;shape=mxgraph.gmdl.calendar;strokeColor=none;fillColor=#737373;shadow=0;sketch=0;" vertex="1" parent="1">
          <mxGeometry x="1080" y="984" width="13" height="13" as="geometry" />
        </mxCell>
        <mxCell id="8JSm_sYvDJ9vIiFW1zC--72" value="" style="shape=image;html=1;verticalAlign=top;verticalLabelPosition=bottom;labelBackgroundColor=#ffffff;imageAspect=0;aspect=fixed;image=https://cdn4.iconfinder.com/data/icons/social-media-and-logos-12/32/Logo_telegram_Airplane_Air_plane_paper_airplane-33-128.png" vertex="1" parent="1">
          <mxGeometry x="1012" y="974" width="26" height="26" as="geometry" />
        </mxCell>
        <mxCell id="8JSm_sYvDJ9vIiFW1zC--73" value="" style="ellipse;whiteSpace=wrap;html=1;aspect=fixed;" vertex="1" parent="1">
          <mxGeometry x="1033" y="962" width="16" height="16" as="geometry" />
        </mxCell>
        <mxCell id="8JSm_sYvDJ9vIiFW1zC--74" value="4" style="text;html=1;strokeColor=none;fillColor=none;align=center;verticalAlign=middle;whiteSpace=wrap;rounded=0;" vertex="1" parent="1">
          <mxGeometry x="1033" y="966" width="16" height="8" as="geometry" />
        </mxCell>
        <mxCell id="8JSm_sYvDJ9vIiFW1zC--76" value="" style="rounded=0;whiteSpace=wrap;html=1;fillColor=#FCFCFC;" vertex="1" parent="1">
          <mxGeometry x="609" y="790" width="158" height="87" as="geometry" />
        </mxCell>
        <mxCell id="8JSm_sYvDJ9vIiFW1zC--77" value="Set Wallpaper" style="text;html=1;strokeColor=none;fillColor=none;align=center;verticalAlign=middle;whiteSpace=wrap;rounded=0;fontSize=10;" vertex="1" parent="1">
          <mxGeometry x="614.12" y="793" width="72.88" height="24" as="geometry" />
        </mxCell>
        <mxCell id="8JSm_sYvDJ9vIiFW1zC--78" value="X show on home page &amp;nbsp; &amp;nbsp;" style="html=1;shadow=0;dashed=0;shape=mxgraph.bootstrap.switch;strokeColor=#ADB6BD;strokeWidth=1;fillColor=#E9ECEF;fontColor=#000000;onStrokeColor=#ffffff;onFillColor=#0085FC;align=right;verticalAlign=middle;spacingLeft=10;labelPosition=left;verticalLabelPosition=middle;buttonState=0;sketch=0;fontSize=10;" vertex="1" parent="1">
          <mxGeometry x="730" y="821" width="20" height="10" as="geometry" />
        </mxCell>
        <mxCell id="8JSm_sYvDJ9vIiFW1zC--79" value="Y show on home page &amp;nbsp; &amp;nbsp;" style="html=1;shadow=0;dashed=0;shape=mxgraph.bootstrap.switch;strokeColor=#ADB6BD;strokeWidth=1;fillColor=#E9ECEF;fontColor=#000000;onStrokeColor=#ffffff;onFillColor=#0085FC;align=right;verticalAlign=middle;spacingLeft=10;labelPosition=left;verticalLabelPosition=middle;buttonState=0;sketch=0;fontSize=10;" vertex="1" parent="1">
          <mxGeometry x="730" y="845.5" width="20" height="10" as="geometry" />
        </mxCell>
        <mxCell id="8JSm_sYvDJ9vIiFW1zC--80" value="" style="verticalLabelPosition=bottom;verticalAlign=top;html=1;shadow=0;dashed=0;strokeWidth=1;shape=mxgraph.android.phone2;strokeColor=#c0c0c0;" vertex="1" parent="1">
          <mxGeometry x="1281" y="621.5" width="233" height="459" as="geometry" />
        </mxCell>
        <mxCell id="8JSm_sYvDJ9vIiFW1zC--81" value="" style="verticalLabelPosition=bottom;verticalAlign=top;html=1;shadow=0;dashed=0;strokeWidth=2;shape=mxgraph.android.navigation_bar_1;fillColor=#1A1A1A;strokeColor=#999999;sketch=0;" vertex="1" parent="1">
          <mxGeometry x="1289.5" y="1010.5" width="216" height="30" as="geometry" />
        </mxCell>
        <mxCell id="8JSm_sYvDJ9vIiFW1zC--93" value="" style="endArrow=none;html=1;rounded=0;fontSize=10;fontColor=#000000;entryX=0.966;entryY=0.15;entryDx=0;entryDy=0;entryPerimeter=0;" edge="1" parent="1" target="8JSm_sYvDJ9vIiFW1zC--80">
          <mxGeometry width="50" height="50" relative="1" as="geometry">
            <mxPoint x="1292" y="691" as="sourcePoint" />
            <mxPoint x="1502" y="691" as="targetPoint" />
          </mxGeometry>
        </mxCell>
        <mxCell id="8JSm_sYvDJ9vIiFW1zC--94" value="&lt;font color=&quot;#007fff&quot;&gt;Privacy and Security&lt;/font&gt;" style="text;html=1;strokeColor=none;fillColor=none;align=center;verticalAlign=middle;whiteSpace=wrap;rounded=0;fontSize=10;fontColor=#000000;" vertex="1" parent="1">
          <mxGeometry x="1301" y="661" width="135" height="30" as="geometry" />
        </mxCell>
        <mxCell id="8JSm_sYvDJ9vIiFW1zC--95" value="" style="shape=image;html=1;verticalAlign=top;verticalLabelPosition=bottom;labelBackgroundColor=#ffffff;imageAspect=0;aspect=fixed;image=https://cdn1.iconfinder.com/data/icons/material-core/16/arrow-back-128.png;fontSize=10;fontColor=#007FFF;fillColor=#FCFCFC;" vertex="1" parent="1">
          <mxGeometry x="1297" y="672" width="14" height="14" as="geometry" />
        </mxCell>
        <mxCell id="8JSm_sYvDJ9vIiFW1zC--96" value="&lt;font color=&quot;#007fff&quot;&gt;Privacy&amp;nbsp;&lt;/font&gt;" style="text;html=1;strokeColor=none;fillColor=none;align=center;verticalAlign=middle;whiteSpace=wrap;rounded=0;fontSize=10;fontColor=#000000;" vertex="1" parent="1">
          <mxGeometry x="1295" y="695" width="54" height="23" as="geometry" />
        </mxCell>
        <mxCell id="8JSm_sYvDJ9vIiFW1zC--97" value="Last seen and online" style="text;html=1;strokeColor=none;fillColor=none;align=center;verticalAlign=middle;whiteSpace=wrap;rounded=0;fontSize=10;fontColor=#030303;" vertex="1" parent="1">
          <mxGeometry x="1287" y="711" width="127" height="30" as="geometry" />
        </mxCell>
        <mxCell id="8JSm_sYvDJ9vIiFW1zC--98" value="" style="dashed=0;labelPosition=right;align=left;shape=mxgraph.gmdl.checkbox;strokeColor=none;fillColor=#009587;strokeWidth=2;aspect=fixed;sketch=0;fontSize=10;fontColor=#030303;" vertex="1" parent="1">
          <mxGeometry x="1480" y="721" width="14" height="14" as="geometry" />
        </mxCell>
        <mxCell id="8JSm_sYvDJ9vIiFW1zC--99" value="Call" style="text;html=1;strokeColor=none;fillColor=none;align=center;verticalAlign=middle;whiteSpace=wrap;rounded=0;fontSize=10;fontColor=#030303;" vertex="1" parent="1">
          <mxGeometry x="1287" y="735" width="53" height="23" as="geometry" />
        </mxCell>
        <mxCell id="8JSm_sYvDJ9vIiFW1zC--100" value="" style="dashed=0;labelPosition=right;align=left;shape=mxgraph.gmdl.checkbox;strokeColor=none;fillColor=#009587;strokeWidth=2;aspect=fixed;sketch=0;fontSize=10;fontColor=#030303;" vertex="1" parent="1">
          <mxGeometry x="1480" y="745" width="14" height="14" as="geometry" />
        </mxCell>
        <mxCell id="8JSm_sYvDJ9vIiFW1zC--101" value="&lt;font color=&quot;#007fff&quot;&gt;Security&lt;/font&gt;" style="text;html=1;strokeColor=none;fillColor=none;align=center;verticalAlign=middle;whiteSpace=wrap;rounded=0;fontSize=10;fontColor=#000000;" vertex="1" parent="1">
          <mxGeometry x="1297" y="764" width="54" height="23" as="geometry" />
        </mxCell>
        <mxCell id="8JSm_sYvDJ9vIiFW1zC--102" value="Passcode Lock" style="text;html=1;strokeColor=none;fillColor=none;align=center;verticalAlign=middle;whiteSpace=wrap;rounded=0;fontSize=10;fontColor=#030303;" vertex="1" parent="1">
          <mxGeometry x="1299" y="784" width="81.5" height="28" as="geometry" />
        </mxCell>
        <mxCell id="8JSm_sYvDJ9vIiFW1zC--103" value="Two Step Verification" style="text;html=1;strokeColor=none;fillColor=none;align=center;verticalAlign=middle;whiteSpace=wrap;rounded=0;fontSize=10;fontColor=#030303;" vertex="1" parent="1">
          <mxGeometry x="1299" y="809" width="106" height="28" as="geometry" />
        </mxCell>
        <mxCell id="8JSm_sYvDJ9vIiFW1zC--104" value="Off" style="text;html=1;strokeColor=none;fillColor=none;align=center;verticalAlign=middle;whiteSpace=wrap;rounded=0;fontSize=9;fontColor=#030303;" vertex="1" parent="1">
          <mxGeometry x="1469" y="812.75" width="30" height="20.5" as="geometry" />
        </mxCell>
        <mxCell id="8JSm_sYvDJ9vIiFW1zC--105" value="Connected Partner" style="text;html=1;strokeColor=none;fillColor=none;align=center;verticalAlign=middle;whiteSpace=wrap;rounded=0;fontSize=10;fontColor=#030303;" vertex="1" parent="1">
          <mxGeometry x="1301" y="833.25" width="94" height="27.75" as="geometry" />
        </mxCell>
        <mxCell id="8JSm_sYvDJ9vIiFW1zC--106" value="@username" style="text;html=1;strokeColor=none;fillColor=none;align=center;verticalAlign=middle;whiteSpace=wrap;rounded=0;fontSize=9;fontColor=#030303;" vertex="1" parent="1">
          <mxGeometry x="1454" y="836.88" width="30" height="20.5" as="geometry" />
        </mxCell>
        <mxCell id="8JSm_sYvDJ9vIiFW1zC--107" value="Disconnect" style="rounded=1;html=1;shadow=0;dashed=0;whiteSpace=wrap;fontSize=7;fillColor=#FF0000;align=center;strokeColor=none;fontColor=#ffffff;strokeWidth=2;" vertex="1" parent="1">
          <mxGeometry x="1442" y="857.5" width="52" height="14" as="geometry" />
        </mxCell>
        <mxCell id="8JSm_sYvDJ9vIiFW1zC--108" value="&lt;font color=&quot;#007fff&quot;&gt;Delete my account&lt;/font&gt;" style="text;html=1;strokeColor=none;fillColor=none;align=center;verticalAlign=middle;whiteSpace=wrap;rounded=0;fontSize=10;fontColor=#000000;" vertex="1" parent="1">
          <mxGeometry x="1299" y="883" width="95" height="23" as="geometry" />
        </mxCell>
        <mxCell id="8JSm_sYvDJ9vIiFW1zC--109" value="If away for" style="text;html=1;strokeColor=none;fillColor=none;align=center;verticalAlign=middle;whiteSpace=wrap;rounded=0;fontSize=10;fontColor=#030303;" vertex="1" parent="1">
          <mxGeometry x="1297.5" y="901" width="61.5" height="27" as="geometry" />
        </mxCell>
        <mxCell id="8JSm_sYvDJ9vIiFW1zC--110" value="3 months" style="text;html=1;strokeColor=none;fillColor=none;align=center;verticalAlign=middle;whiteSpace=wrap;rounded=0;fontSize=9;fontColor=#030303;" vertex="1" parent="1">
          <mxGeometry x="1452" y="904.75" width="45.5" height="20.5" as="geometry" />
        </mxCell>
        <mxCell id="8JSm_sYvDJ9vIiFW1zC--111" value="" style="ellipse;whiteSpace=wrap;html=1;aspect=fixed;fontSize=7;fontColor=#030303;fillColor=#FF0000;" vertex="1" parent="1">
          <mxGeometry x="938" y="806" width="34" height="34" as="geometry" />
        </mxCell>
        <mxCell id="8JSm_sYvDJ9vIiFW1zC--112" value="" style="ellipse;whiteSpace=wrap;html=1;aspect=fixed;fontSize=7;fontColor=#030303;fillColor=#3333FF;" vertex="1" parent="1">
          <mxGeometry x="1083" y="806" width="34" height="34" as="geometry" />
        </mxCell>
        <mxCell id="8JSm_sYvDJ9vIiFW1zC--113" value="X" style="text;html=1;strokeColor=none;fillColor=none;align=center;verticalAlign=middle;whiteSpace=wrap;rounded=0;fontSize=11;fontColor=#030303;" vertex="1" parent="1">
          <mxGeometry x="925" y="836.88" width="60" height="30" as="geometry" />
        </mxCell>
        <mxCell id="8JSm_sYvDJ9vIiFW1zC--114" value="Y" style="text;html=1;strokeColor=none;fillColor=none;align=center;verticalAlign=middle;whiteSpace=wrap;rounded=0;fontSize=11;fontColor=#030303;" vertex="1" parent="1">
          <mxGeometry x="1070" y="840" width="60" height="30" as="geometry" />
        </mxCell>
        <mxCell id="8JSm_sYvDJ9vIiFW1zC--115" value="Enter username" style="strokeWidth=1;html=1;shadow=0;dashed=0;shape=mxgraph.android.textfield;align=left;strokeColor=#999999;pointerEvents=1;fontSize=8;fontColor=#030303;fillColor=#E6E6E6;" vertex="1" parent="1">
          <mxGeometry x="1102.5" y="257" width="174" height="30" as="geometry" />
        </mxCell>
      </root>
    </mxGraphModel>
  </diagram>
</mxfile>
